<svg id="Layer_1" data-name="Layer 1" xmlns="http://www.w3.org/2000/svg" xmlns:xlink="http://www.w3.org/1999/xlink" viewBox="0 0 149.46 148"><defs><style>.cls-1{fill:none;}.cls-2{clip-path:url(#clip-path);}.cls-3{clip-path:url(#clip-path-2);}.cls-4{clip-path:url(#clip-path-3);}.cls-5{fill:#fff;}</style><clipPath id="clip-path" transform="translate(-107 -140)"><path class="cls-1" d="M215.85,185.9c0,3.22-2.54,8.42-12.06,16.69-25.65-6.87-45.44-3-56,.51-.76-.58-1.5-1.17-2.21-1.76-6.21-5.08-11-10.11-10.77-13.49,1.25-2.67,1.88-4.14,1.88-4.14,36.31-6.72,75.31,0,75.31,0C213.28,183.71,214.57,184.54,215.85,185.9Z"/></clipPath><clipPath id="clip-path-2" transform="translate(-107 -140)"><path class="cls-1" d="M173,220l-.7,0c-12.4.76-38.3,21.49-38.3,21.49-10.75-1.35-9.41-33.62-9.41-33.62,4.89-9,8.3-15.95,10.22-20.07-.19,3.38,4.56,8.41,10.77,13.49.71.59,1.45,1.18,2.21,1.76a256.89,256.89,0,0,0,22.75,15.45c1,.58,1.69,1,2.1,1.25h0Z"/></clipPath><clipPath id="clip-path-3" transform="translate(-107 -140)"><path class="cls-1" d="M226.82,207.92a57.91,57.91,0,0,1-10.76,33.62c-2.47-6.18-31-19.17-35.67-21.24l-.63-.28c.08-.05.16-.11.24-.15l2.34-1.53a202.53,202.53,0,0,0,21.45-15.75c9.52-8.27,12.09-13.47,12.06-16.69C221.47,191.86,226.82,207.92,226.82,207.92Z"/></clipPath><image id="image" width="768" height="1024" xlink:href="../../../3d%20Model%20Design/Template/Images/fab.jpg"/></defs><title>cl</title><g id="cl"><g class="cls-2"><use transform="translate(14) scale(0.14)" xlink:href="#image"/></g><g class="cls-3"><use transform="translate(107 169) scale(0.1)" xlink:href="#image"/></g><g class="cls-4"><use transform="translate(176 165) scale(0.1)" xlink:href="#image"/></g><path class="cls-5" d="M203.72,202.29a200.35,200.35,0,0,1-21.28,16,72.35,72.35,0,0,0-11.76.34,257.14,257.14,0,0,1-22.92-15.21C158.25,199.82,178,195.69,203.72,202.29Z" transform="translate(-107 -140)"/></g></svg>