<svg xmlns="http://www.w3.org/2000/svg" width="97.32" height="85.5" viewBox="0 0 97.32 85.5"><defs><style>.a{fill:none;}.a,.b{stroke:#000;stroke-miterlimit:10;}.c{font-size:19.08px;font-family:ArialRoundedMTBold, Arial Rounded MT Bold;}.d{letter-spacing:-0.04em;}.e{letter-spacing:0em;}.f{letter-spacing:-0.02em;}</style></defs><title>ClickHere</title><path class="a" d="M63.59,61.64c9.7-7.58,18.94-18.35,22-33A51.63,51.63,0,0,0,85.58,8" transform="translate(-1.85 -3.5)"/><path class="b" d="M84.82,4c-2,.37-3.51,4.36-2,6.05s5.28.89,6-1C89.69,7,86.87,3.65,84.82,4Z" transform="translate(-1.85 -3.5)"/><text class="c" transform="matrix(1, 0.09, -0.09, 1, 0.36, 72.86)">Cli<tspan class="d" x="24.47" y="0">c</tspan><tspan class="e" x="35.08" y="0">k He</tspan><tspan class="f" x="76.64" y="0">r</tspan><tspan x="84.52" y="0">e</tspan></text><path class="a" d="M87.17,76.36" transform="translate(-1.85 -3.5)"/><path class="a" d="M44.23,49.33" transform="translate(-1.85 -3.5)"/></svg>