<svg id="Layer_1" data-name="Layer 1" xmlns="http://www.w3.org/2000/svg" xmlns:xlink="http://www.w3.org/1999/xlink" viewBox="0 0 425.8 446.18"><defs><style>.cls-1,.cls-2{fill:#fff;stroke:#231f20;stroke-miterlimit:10;}.cls-2{stroke-width:0.5px;}</style><image id="image" width="241" height="242" xlink:href="button.png"/></defs><title>shirt</title><path id="main" class="cls-1" d="M378.4,414.07c-9.71-55.13-25.84-144.56-31.7-163.83,0,0,3.69,225.23,1.23,236.3,0,0,4.3,2.46-43.7,17.85,0,0-4.3,1.23-9.23-2.46,0,0-19.69,6.77-25.23,6.77,0,0-20.3.61-32.61-4.31,0,0-11.08,3.08-21.54,1.23,0,0-23.39,1.85-30.15-3.08,0,0-23.39,1.23-28.31-.61,0,0-22.77-8-25.23-17.85,0,0-.52-180,3.63-215.6-5.18,23.81-24.77,113.6-37.16,166.87l-62.25-3.43C49.43,350,80.63,170.36,102.39,146.24c0,0,80-28.93,92.92-33.24,0,0,54.16,11,83.69-3.07a35.62,35.62,0,0,0,7.39,4.31s83.08,30.76,93.54,36.92c0,0,38,142.37,63.45,247.86Z" transform="translate(-31.34 -63.04)"/><g id="coufs"><path class="cls-1" d="M100.55,422.73c-5.14,22.06-9,37.85-10.17,40.12,0,0-9.84-1.23-58.46-3.08,0,0,2.38-15.79,6.38-40.47Z" transform="translate(-31.34 -63.04)"/><path class="cls-1" d="M456.54,433.31s-56,12.31-68.31,12.31c0,0-3.13-18.31-7.68-44.17l65-15.05C449.58,403.22,453.32,419.1,456.54,433.31Z" transform="translate(-31.34 -63.04)"/></g><g id="strips"><polygon class="cls-2" points="213.71 429.96 205.1 429.34 202.84 53.55 210.92 53.63 213.71 429.96"/></g><g id="collar"><path class="cls-1" d="M237.82,105.57a16.12,16.12,0,0,1-3.12-.42s-5.39,7.2-12.61,15.93a263.64,263.64,0,0,1-19.42,21.46s-19.28-36.72-21.13-41c0,0,9.85-26.26,11.49-26.46,0,0,4.87,6.83,16.13,15A128.91,128.91,0,0,0,237.82,105.57Z" transform="translate(-31.34 -63.04)"/><path class="cls-1" d="M276.11,144.38s-9.7-11.65-18.83-22.3c-6.92-8.08-13.51-15.59-15.28-17a9.89,9.89,0,0,1-3.13.5c3.08-1.12,18.24-6.75,29.89-14.42,6.83-4.5,12.45-9.69,13.74-15.09a8.49,8.49,0,0,1,.38,1.24s7.38,21.12,8.82,23C291.7,100.28,296,108.9,276.11,144.38Z" transform="translate(-31.34 -63.04)"/><path class="cls-1" d="M282.5,76.07c-1.29,5.4-6.91,10.59-13.74,15.09-5.86-1.51-54-1.13-59.6-1.08-11.26-8.2-16.13-15-16.13-15s4.31-9.24,17-10.87c0,0,41.84-1.44,48.41,0C258.47,64.18,278.62,65.7,282.5,76.07Z" transform="translate(-31.34 -63.04)"/><path class="cls-1" d="M257.28,122.08c-20.21,3-34.86-.91-35.19-1,7.22-8.73,12.61-15.93,12.61-15.93a16.12,16.12,0,0,0,3.12.42l.49.2.54-.19s0,0,0,0a9.89,9.89,0,0,0,3.13-.5C243.77,106.49,250.36,114,257.28,122.08Z" transform="translate(-31.34 -63.04)"/><path class="cls-1" d="M268.76,91.16c-11.65,7.67-26.81,13.3-29.89,14.42,0,0,0,0,0,0-.32,0-.67,0-1,0a128.91,128.91,0,0,1-28.66-15.49C214.8,90,262.9,89.65,268.76,91.16Z" transform="translate(-31.34 -63.04)"/></g><use transform="translate(204.97 107.13) scale(0.02)" xlink:href="#image"/><use transform="translate(236.31 215.71) scale(0.02)" xlink:href="#image"/><use transform="translate(236.31 256.17) scale(0.02)" xlink:href="#image"/><use transform="translate(236.31 296.63) scale(0.02)" xlink:href="#image"/><use transform="translate(236.31 337.1) scale(0.02)" xlink:href="#image"/><use transform="translate(236.31 377.56) scale(0.02)" xlink:href="#image"/><use transform="translate(236.31 418.02) scale(0.02)" xlink:href="#image"/><use transform="translate(236.31 458.48) scale(0.02)" xlink:href="#image"/></svg>