<svg id="Layer_2" data-name="Layer 2" xmlns="http://www.w3.org/2000/svg" xmlns:xlink="http://www.w3.org/1999/xlink" viewBox="0 0 352.5 470"><defs><style>.cls-1,.cls-5{fill:none;}.cls-2{clip-path:url(#clip-path);}.cls-3,.cls-4{fill:#fff;}.cls-3,.cls-4,.cls-5,.cls-6{stroke:#231f20;stroke-miterlimit:10;}.cls-3,.cls-5,.cls-6{stroke-width:0.75px;}</style><clipPath id="clip-path" transform="translate(-2.5 28)"><path class="cls-1" d="M134.59,27.87S70,52.07,66,61.49s49.76,72.61,20.17,341.56c0,0,106.24,35,200.37,0,0,0-29.58-224.57,22.87-341.56,0,0-37.66-25.56-71.28-33.62C238.13,27.87,176.27,10.38,134.59,27.87Z"/></clipPath></defs><title>ss</title><g class="cls-2"><image width="768" height="1024" transform="scale(0.46)" xlink:href="../../../3d%20Model%20Design/Template/Images/fab.jpg"/></g><g id="Sleeves"><path class="cls-3" d="M76.76,294.13c5.87-20.62,7.19-43.34,6.08-55.54a3.25,3.25,0,0,1,0-.54c.11-4,1.51-52.47,8.32-57.18a4.89,4.89,0,0,0,2.06-2.7c2.45-9.67-.92-40.59-13.08-64.91C72.27,97.55,68.55,76.34,66.8,61.42h0a4.91,4.91,0,0,0-2.22,2.24C57.9,77.36,9.42,184,26,361.21a5,5,0,0,0,4.07,4.42c4.6.83,13.57,1.64,27.52-.33a5,5,0,0,0,4.21-4.2Z" transform="translate(-2.5 28)"/><path class="cls-4" d="M347.73,364.73l-1.34.46c-22,7.28-35-.46-35-.46,0-10.76-5.38-37.65-5.38-37.65-12.1-16.14-17.48-90.1-17.48-90.1,1.35-21.52-6.72-59.17-6.72-59.17s5.38-59.17,20.17-88.76c0,0,4.17-13.71,7.35-27.26l.72.37C363.87,180.5,347.73,364.73,347.73,364.73Z" transform="translate(-2.5 28)"/></g><g id="Cuff"><path class="cls-5" d="M26.33,364.73V401s28.24,4,35,0V364.73" transform="translate(-2.5 28)"/><path class="cls-5" d="M311.08,364.73V401s29.58,2.69,36.31,0V364.73" transform="translate(-2.5 28)"/></g><g id="Collar"><path class="cls-3" d="M226.49,5.18c0,3.21-2.54,8.42-12.07,16.69-25.64-6.87-45.43-3-56,.51-.76-.58-1.5-1.17-2.21-1.76-6.21-5.09-11-10.11-10.77-13.49C146.73,4.45,147.36,3,147.36,3c36.31-6.73,75.31,0,75.31,0C223.92,3,225.21,3.82,226.49,5.18Z" transform="translate(-2.5 28)"/><path class="cls-3" d="M214.36,21.57a201.89,201.89,0,0,1-21.28,16,72.21,72.21,0,0,0-11.76.35A255.69,255.69,0,0,1,158.4,22.68C168.89,19.1,188.64,15,214.36,21.57Z" transform="translate(-2.5 28)"/><path class="cls-3" d="M183.67,39.3l-.7,0c-12.4.77-38.3,21.49-38.3,21.49-10.76-1.34-9.41-33.62-9.41-33.62,4.89-9,8.3-15.94,10.22-20.06-.19,3.38,4.56,8.4,10.77,13.49.71.59,1.45,1.18,2.21,1.76a259.12,259.12,0,0,0,22.75,15.45c1,.58,1.69,1,2.1,1.25h0Z" transform="translate(-2.5 28)"/><path class="cls-3" d="M237.46,27.19A57.87,57.87,0,0,1,226.7,60.81c-2.47-6.17-31-19.16-35.67-21.23-.41-.19-.64-.28-.64-.28a1.65,1.65,0,0,1,.25-.15c.79-.53,1.57-1,2.34-1.53a201.17,201.17,0,0,0,21.44-15.75C224,13.6,226.51,8.39,226.49,5.18,232.11,11.14,237.46,27.19,237.46,27.19Z" transform="translate(-2.5 28)"/></g><g id="Strip"><rect class="cls-3" x="177.81" y="67.97" width="12.1" height="379.22" rx="4.5"/><circle class="cls-6" cx="183.19" cy="74.69" r="3.36"/><circle class="cls-6" cx="183.19" cy="113.69" r="3.36"/><circle class="cls-6" cx="183.19" cy="152.69" r="3.36"/><circle class="cls-6" cx="183.19" cy="191.69" r="3.36"/><circle class="cls-6" cx="183.19" cy="230.69" r="3.36"/><circle class="cls-6" cx="183.19" cy="269.68" r="3.36"/><circle class="cls-6" cx="183.19" cy="308.68" r="3.36"/><circle class="cls-6" cx="183.19" cy="347.68" r="3.36"/><circle class="cls-6" cx="183.19" cy="386.68" r="3.36"/><circle class="cls-6" cx="183.19" cy="425.68" r="3.36"/></g></svg>