<svg id="Layer_1" data-name="Layer 1" xmlns="http://www.w3.org/2000/svg" viewBox="0 0 199.16 144.13"><defs><style>.cls-1{fill:#fff;stroke:#231f20;stroke-miterlimit:10;}</style></defs><title>collar</title><g id="collar"><path class="cls-1" d="M102.47,155.68a28.8,28.8,0,0,1-5.59-.74s-9.66,12.71-22.6,28.13C63.69,195.71,50.91,210.2,39.48,221c0,0-34.55-64.85-37.87-72.46,0,0,17.65-46.37,20.59-46.73,0,0,8.73,12.06,28.91,26.55A232.25,232.25,0,0,0,102.47,155.68Z" transform="translate(-1.07 -80.96)"/><path class="cls-1" d="M171.09,224.22s-17.38-20.58-33.74-39.38c-12.4-14.27-24.21-27.53-27.39-30a18,18,0,0,1-5.61.88c5.52-2,32.69-11.92,53.57-25.47,12.24-7.94,22.31-17.11,24.63-26.65a16.35,16.35,0,0,1,.68,2.19s13.22,37.3,15.8,40.57C199,146.34,206.74,161.56,171.09,224.22Z" transform="translate(-1.07 -80.96)"/><path class="cls-1" d="M182.55,103.58c-2.32,9.54-12.39,18.71-24.63,26.65-10.5-2.66-96.7-2-106.81-1.9C30.93,113.84,22.2,101.78,22.2,101.78s7.73-16.31,30.52-19.19c0,0,75-2.55,86.76,0C139.48,82.59,175.59,85.27,182.55,103.58Z" transform="translate(-1.07 -80.96)"/><path class="cls-1" d="M137.35,184.84c-36.22,5.22-62.48-1.61-63.07-1.77,12.94-15.42,22.6-28.13,22.6-28.13a28.8,28.8,0,0,0,5.59.74c.29.12.58.25.88.35l1-.33s0,0,0,0a18,18,0,0,0,5.61-.88C113.14,157.31,125,170.57,137.35,184.84Z" transform="translate(-1.07 -80.96)"/><path class="cls-1" d="M157.92,130.23c-20.88,13.55-48,23.49-53.57,25.47,0,0,0,0,0,0-.58,0-1.2,0-1.85,0a232.25,232.25,0,0,1-51.36-27.35C61.22,128.24,147.42,127.57,157.92,130.23Z" transform="translate(-1.07 -80.96)"/></g></svg>