<svg id="CollarStyle2" xmlns="http://www.w3.org/2000/svg" xmlns:xlink="http://www.w3.org/1999/xlink" viewBox="0 0 401.31 301"><defs><style>.cls-1{fill:none;}.cls-2,.cls-3{fill:#fff;stroke:#000;stroke-miterlimit:10;}.cls-2{stroke-width:0.25px;}.cls-3{stroke-width:0.75px;}.cls-4{clip-path:url(#clip-path);}.cls-5{clip-path:url(#clip-path-2);}.cls-6{clip-path:url(#clip-path-3);}</style><clipPath id="clip-path" transform="translate(35 -49)"><path class="cls-1" d="M143.81,204.79,95.57,259,62.73,296,12.06,285.87c-30.4-91.21,20.27-152,20.27-152a157.58,157.58,0,0,0,14.49,16.92c2.84,2.94,5.78,5.68,8.62,8.21,1.52,1.32,2.94,2.64,4.35,3.85s2.94,2.54,4.36,3.65c23.61,19.26,47.23,30.51,70,36a10,10,0,0,0,2.33.61A62,62,0,0,0,143.81,204.79Z"/></clipPath><clipPath id="clip-path-2" transform="translate(35 -49)"><path class="cls-1" d="M336.77,285.87,286.09,296l-32.93-36.89.1-.1L205,203s6.51-.24,17.55-4.49a.38.38,0,0,1,.31-.1c42.05-13.28,75.29-39,91.81-53.72,1.42-1.21,2.64-2.33,3.85-3.44s2.13-1.93,3-2.84,1.63-1.62,2.34-2.23l1.52-1.52.81-.81S367.17,194.66,336.77,285.87Z"/></clipPath><clipPath id="clip-path-3" transform="translate(35 -49)"><path class="cls-1" d="M326.23,133.85l-.81.81-1.52,1.52c-.71.61-1.42,1.42-2.34,2.23s-1.82,1.72-2.73,2.43a1.29,1.29,0,0,1-.31.41c-1.21,1.11-2.43,2.23-3.85,3.44-.71.61-1.52,1.22-2.23,1.83-2.43,2-4.76,4-7.19,5.88-3.47,2.74-7,5.44-10.57,8.06C151.37,105.92,60,163,60,163l-.21-.17c-1.41-1.21-2.83-2.53-4.35-3.85-2.84-2.53-5.78-5.27-8.62-8.21a157.58,157.58,0,0,1-14.49-16.92S164.08,52.77,326.23,133.85Z"/></clipPath><image id="image" width="800" height="800" xlink:href="../../fabric2.jpg"/></defs><title>CollarStyle1</title><g id="CollarInner"><path class="cls-2" d="M294.68,160.46A279.37,279.37,0,0,1,263,181c-2.13,1.12-4,1.88-6,3-14,8-24.92,10.86-34.14,14.41a.38.38,0,0,0-.31.1,173.18,173.18,0,0,1-49.25,8.21,149.2,149.2,0,0,1-36.79-3.65,10,10,0,0,1-2.33-.61c-14.49-4.26-44.18-13.46-70-36-1.3-1.13-2.7-2.22-4.15-3.48C60,163,151.37,105.92,294.68,160.46Z" transform="translate(35 -49)"/></g><g id="ButtonStuff"><path class="cls-3" d="M205,203c-13,4-29,4-35,4-24.93,20.37-29.23,49.88-28.83,68.33,61.42,12.46,109.45-14.8,112-16.22Zm-30.79,62.6a10.14,10.14,0,1,1,10.14-10.14A10.16,10.16,0,0,1,174.21,265.6Z" transform="translate(35 -49)"/><path class="cls-3" d="M170,207c-24.93,20.37-29.23,49.88-28.83,68.33A167.68,167.68,0,0,1,95.57,259l48.24-54.22S152.47,206.9,170,207Z" transform="translate(35 -49)"/><circle class="cls-3" cx="209.21" cy="206.46" r="10.13"/></g><g id="CollarFbLayers"><g class="cls-4"><use transform="translate(0 73) scale(0.22)" xlink:href="#image"/></g><g class="cls-5"><use transform="translate(200 132) scale(0.21)" xlink:href="#image"/></g><g class="cls-6"><use transform="translate(27 49) scale(0.38)" xlink:href="#image"/></g></g></svg>