<svg id="aaeafc5b-13d8-41d1-a84e-f7a73511422f" data-name="Layer 1" xmlns="http://www.w3.org/2000/svg" xmlns:xlink="http://www.w3.org/1999/xlink" viewBox="0 0 473.59 660.81"><defs><style>.a2c53df6-d05d-4578-9799-bf9fed6515e3{fill:none;}.a2c53df6-d05d-4578-9799-bf9fed6515e3,.b298acc6-f403-475f-9508-aefb6af0fda5{stroke:#000;stroke-miterlimit:10;}.eb9f2eaa-ecc7-49bb-9b74-73c4811bc9bf{clip-path:url(#e992384d-58d4-4a0e-a1f5-b70d63509a20);}.f25e056e-5943-420a-8e0c-6179660046d2{clip-path:url(#b62e81a6-d5c0-4f5d-9069-588ca7a12718);}.b298acc6-f403-475f-9508-aefb6af0fda5{fill:#fff;}.fbf3d035-2d60-43eb-b7f1-aee08a047297{clip-path:url(#f99b8e24-d90c-4851-8f11-b71bde3428bc);}</style><clipPath id="e992384d-58d4-4a0e-a1f5-b70d63509a20" transform="translate(37 147)"><path class="a2c53df6-d05d-4578-9799-bf9fed6515e3" d="M175.51,155c-15.45,0-45,28.15-65.79,50.27-13.49,14.32-23.31,26.11-23.31,26.11C77.74,227,66.12,205,54.57,177.81,35.15,132.12,15.91,71.89,11.15,56.73,14.74,66.27,23,75.77,34,84.9,80.42,123.28,175.51,155,175.51,155Z"/></clipPath><clipPath id="b62e81a6-d5c0-4f5d-9069-588ca7a12718" transform="translate(37 147)"><path class="a2c53df6-d05d-4578-9799-bf9fed6515e3" d="M341,53.15v0a0,0,0,0,1,0,0v0s0,0,0,0h0l0,.11-.16.51c0,.1-.07.2-.1.31s-.05.15-.07.23l-.11.37c-.16.49-.35,1.1-.57,1.8a77265801279.63,77265801279.63,0,0,0,0,.12C336.29,66.27,328,75.77,317,84.9,215,26.8,34,84.9,34,84.9c-11-9.13-19.3-18.63-22.89-28.17l0-.12-.57-1.8c0-.13-.07-.26-.11-.37s0-.16-.07-.23-.07-.21-.1-.31a.31.31,0,0,1,0-.08l-.06-.17-.07-.25,0-.07a.08.08,0,0,0,0-.06v0a.25.25,0,0,1,0-.07v0S188.24-23.23,341,53.15Z"/></clipPath><clipPath id="f99b8e24-d90c-4851-8f11-b71bde3428bc" transform="translate(37 147)"><path class="a2c53df6-d05d-4578-9799-bf9fed6515e3" d="M339.88,56.73c-4.76,15.16-24,75.39-43.42,121.08C284.9,205,273.29,227,264.62,231.36c0,0-9.82-11.79-23.31-26.11C220.5,183.13,191,155,175.51,155c0,0,95.1-31.7,141.48-70.08C328,75.77,336.29,66.27,339.88,56.73Z"/></clipPath><image id="e28948ab-0c88-4909-83a2-2b74ca03caf3" width="768" height="1024" xlink:href="../../fab.jpg"/></defs><title>CollarDesign7</title><path class="a2c53df6-d05d-4578-9799-bf9fed6515e3" d="M11.11,56.61a29.52,29.52,0,0,1-1-3.28.08.08,0,0,0,0-.06.89.89,0,0,1,0,.13l.07.25.06.17a.31.31,0,0,0,0,.08c0,.1.06.2.1.31s0,.15.07.23.07.24.11.37Z" transform="translate(37 147)"/><g class="eb9f2eaa-ecc7-49bb-9b74-73c4811bc9bf"><use transform="translate(0 38) scale(0.6)" xlink:href="#e28948ab-0c88-4909-83a2-2b74ca03caf3"/></g><path class="a2c53df6-d05d-4578-9799-bf9fed6515e3" d="M175.51,155c-15.45,0-45,28.15-65.79,50.27-13.49,14.32-23.31,26.11-23.31,26.11C77.74,227,66.12,205,54.57,177.81,35.15,132.12,15.91,71.89,11.15,56.73,14.74,66.27,23,75.77,34,84.9,80.42,123.28,175.51,155,175.51,155Z" transform="translate(37 147)"/><g class="f25e056e-5943-420a-8e0c-6179660046d2"><use transform="translate(-28 -147) scale(0.6)" xlink:href="#e28948ab-0c88-4909-83a2-2b74ca03caf3"/></g><path class="a2c53df6-d05d-4578-9799-bf9fed6515e3" d="M341,53.15v0a0,0,0,0,1,0,0v0s0,0,0,0h0l0,.11-.16.51c0,.1-.07.2-.1.31s-.05.15-.07.23l-.11.37c-.16.49-.35,1.1-.57,1.8a77265801279.63,77265801279.63,0,0,0,0,.12C336.29,66.27,328,75.77,317,84.9,215,26.8,34,84.9,34,84.9c-11-9.13-19.3-18.63-22.89-28.17l0-.12-.57-1.8c0-.13-.07-.26-.11-.37s0-.16-.07-.23-.07-.21-.1-.31a.31.31,0,0,1,0-.08l-.06-.17-.07-.25,0-.07a.08.08,0,0,0,0-.06v0a.25.25,0,0,1,0-.07v0S188.24-23.23,341,53.15Z" transform="translate(37 147)"/><path class="b298acc6-f403-475f-9508-aefb6af0fda5" d="M341,53.15v76.37s0,20.21-44.54,48.29c19.42-45.69,38.66-105.92,43.42-121.08a77265801279.63,77265801279.63,0,0,1,0-.12,28.36,28.36,0,0,0,1-3.33h0s0,0,0,0v0a0,0,0,0,0,0,0Z" transform="translate(37 147)"/><path class="b298acc6-f403-475f-9508-aefb6af0fda5" d="M54.57,177.81C10,149.73,10,129.54,10,129.52V53.18a.25.25,0,0,0,0,.07v0a.08.08,0,0,1,0,.06,29.52,29.52,0,0,0,1,3.28l0,.12C15.91,71.89,35.15,132.12,54.57,177.81Z" transform="translate(37 147)"/><path class="b298acc6-f403-475f-9508-aefb6af0fda5" d="M317,84.9C270.61,123.28,175.51,155,175.51,155S80.42,123.28,34,84.9C34,84.9,215,26.8,317,84.9Z" transform="translate(37 147)"/><g class="fbf3d035-2d60-43eb-b7f1-aee08a047297"><use transform="translate(-27.66 -105.19) scale(0.6)" xlink:href="#e28948ab-0c88-4909-83a2-2b74ca03caf3"/></g><path class="a2c53df6-d05d-4578-9799-bf9fed6515e3" d="M339.88,56.73c-4.76,15.16-24,75.39-43.42,121.08C284.9,205,273.29,227,264.62,231.36c0,0-9.82-11.79-23.31-26.11C220.5,183.13,191,155,175.51,155c0,0,95.1-31.7,141.48-70.08C328,75.77,336.29,66.27,339.88,56.73Z" transform="translate(37 147)"/><path class="a2c53df6-d05d-4578-9799-bf9fed6515e3" d="M341,53.28a28.36,28.36,0,0,1-1,3.33c.22-.7.41-1.31.57-1.8l.11-.37c0-.08,0-.16.07-.23s.07-.21.1-.31C340.86,53.61,340.92,53.4,341,53.28Z" transform="translate(37 147)"/><path class="a2c53df6-d05d-4578-9799-bf9fed6515e3" d="M341,53.15" transform="translate(37 147)"/><path class="b298acc6-f403-475f-9508-aefb6af0fda5" d="M175.51,155c-15.45,0-45,28.15-65.79,50.27,0,0,57.36,37.54,131.59,0C220.5,183.13,191,155,175.51,155Zm0,50.92a12.73,12.73,0,1,1,12.73-12.73A12.73,12.73,0,0,1,175.51,205.9Z" transform="translate(37 147)"/><circle class="b298acc6-f403-475f-9508-aefb6af0fda5" cx="212.51" cy="340.17" r="12.73"/></svg>