<svg id="f3956fe7-1b91-4743-8abd-5cff6afcce3a" data-name="Layer 1" xmlns="http://www.w3.org/2000/svg" xmlns:xlink="http://www.w3.org/1999/xlink" viewBox="0 0 470 436.33"><defs><style>.b0ec4d11-bf42-4f0c-a63c-13da2cdacea7,.bdc466d8-7d78-4f1d-8d6d-aa102c03f7df{fill:none;}.bdc466d8-7d78-4f1d-8d6d-aa102c03f7df,.be704651-b443-41a8-ba03-f852dfbe36bd{stroke:#000;}.b0ec4d11-bf42-4f0c-a63c-13da2cdacea7,.bdc466d8-7d78-4f1d-8d6d-aa102c03f7df,.be704651-b443-41a8-ba03-f852dfbe36bd{stroke-miterlimit:10;}.b0ec4d11-bf42-4f0c-a63c-13da2cdacea7{stroke:#f40000;stroke-width:0.25px;}.f1fb54ba-fdda-481f-99af-22bf9ba784d7{clip-path:url(#a1237879-417e-451c-a02e-f59910bba7c2);}.ae008cf5-f47c-4cf6-b4bd-bf454727d4ec{clip-path:url(#fe9dcb15-6d83-4a29-b990-649f3bdcd2ea);}.aa38b8ab-e7cd-4203-9d87-c3025671a4f8{clip-path:url(#ef49703f-686e-49fa-9b1b-4b3ee0c93e4a);}.be704651-b443-41a8-ba03-f852dfbe36bd{fill:#fff;}</style><clipPath id="a1237879-417e-451c-a02e-f59910bba7c2" transform="translate(65 92)"><path class="bdc466d8-7d78-4f1d-8d6d-aa102c03f7df" d="M176.58,160.8l-.45.25c-7.53-2.16-34.62-8.88-53.61.62-22.25,11.12-100.11,55.62-100.11,66.74C22.41,228.41-29.74,72.5,37,28h0c6.2-1.43-2.17,13.55,21.41,43.84C75.42,93.67,109,123.46,176.58,160.8Z"/></clipPath><clipPath id="fe9dcb15-6d83-4a29-b990-649f3bdcd2ea" transform="translate(65 92)"><path class="bdc466d8-7d78-4f1d-8d6d-aa102c03f7df" d="M330.75,228.41c0-11.12-77.87-55.62-100.12-66.74-19-9.5-46.08-2.78-53.61-.62l-.44-.25c67.46-37.28,101-67,118-88.86,23-29.55,15.71-44.56,21-44l.51.09C382.9,72.5,330.75,228.41,330.75,228.41Z"/></clipPath><clipPath id="ef49703f-686e-49fa-9b1b-4b3ee0c93e4a" transform="translate(65 92)"><path class="bdc466d8-7d78-4f1d-8d6d-aa102c03f7df" d="M315.65,27.91c-5.32-.53,2,14.48-21,44-120.37-19.42-220.17-3-236.17-.11C34.87,41.54,43.24,26.56,37,28,39.5,27.18,158.48-11.53,315.65,27.91Z"/></clipPath><image id="f1b9a10d-5d1e-4ce9-bb45-312ea1b594f0" width="768" height="1024" xlink:href="../../../../ClickModel/Images/fab.jpg"/></defs><title>CollarDesign5</title><path class="b0ec4d11-bf42-4f0c-a63c-13da2cdacea7" d="M178.14,161.67" transform="translate(65 92)"/><g class="f1fb54ba-fdda-481f-99af-22bf9ba784d7"><use transform="scale(0.42)" xlink:href="#f1b9a10d-5d1e-4ce9-bb45-312ea1b594f0"/></g><path class="bdc466d8-7d78-4f1d-8d6d-aa102c03f7df" d="M176.58,160.8l-.45.25c-7.53-2.16-34.62-8.88-53.61.62-22.25,11.12-100.11,55.62-100.11,66.74C22.41,228.41-29.74,72.5,37,28h0c6.2-1.43-2.17,13.55,21.41,43.84C75.42,93.67,109,123.46,176.58,160.8Z" transform="translate(65 92)"/><g class="ae008cf5-f47c-4cf6-b4bd-bf454727d4ec"><use transform="translate(80 -89) scale(0.42)" xlink:href="#f1b9a10d-5d1e-4ce9-bb45-312ea1b594f0"/></g><path class="bdc466d8-7d78-4f1d-8d6d-aa102c03f7df" d="M330.75,228.41c0-11.12-77.87-55.62-100.12-66.74-19-9.5-46.08-2.78-53.61-.62l-.44-.25c67.46-37.28,101-67,118-88.86,23-29.55,15.71-44.56,21-44l.51.09C382.9,72.5,330.75,228.41,330.75,228.41Z" transform="translate(65 92)"/><path class="b0ec4d11-bf42-4f0c-a63c-13da2cdacea7" d="M185.86,161.67" transform="translate(65 92)"/><g class="aa38b8ab-e7cd-4203-9d87-c3025671a4f8"><use transform="translate(11.96 -90.97) scale(0.42)" xlink:href="#f1b9a10d-5d1e-4ce9-bb45-312ea1b594f0"/></g><path class="bdc466d8-7d78-4f1d-8d6d-aa102c03f7df" d="M315.65,27.91c-5.32-.53,2,14.48-21,44-120.37-19.42-220.17-3-236.17-.11C34.87,41.54,43.24,26.56,37,28,39.5,27.18,158.48-11.53,315.65,27.91Z" transform="translate(65 92)"/><path class="b0ec4d11-bf42-4f0c-a63c-13da2cdacea7" d="M316,28l-.35-.09" transform="translate(65 92)"/><path class="be704651-b443-41a8-ba03-f852dfbe36bd" d="M58.5,71.5s117-20,236,0c0,0-27,39-118,90C176.5,161.5,77.5,103.5,58.5,71.5Z" transform="translate(65 92)"/></svg>