<svg id="a7abd99f-173e-4f1d-b483-82e8c51917c1" data-name="Layer 1" xmlns="http://www.w3.org/2000/svg" xmlns:xlink="http://www.w3.org/1999/xlink" viewBox="0 0 569.85 718.62"><defs><style>.f8f3584f-8bb9-4464-94fe-a056f0ad88c6{fill:none;}.b94592bd-8ecb-458b-be95-320681bb6b00,.f8f3584f-8bb9-4464-94fe-a056f0ad88c6{stroke:#000;stroke-miterlimit:10;}.a9158d3b-b11c-4294-ae51-4fde97e59188{clip-path:url(#a08cb510-041b-4d2b-9b43-633d46999ea0);}.ba97c20e-fc62-462c-bd66-a4661e069611{clip-path:url(#a33ced6d-fa06-4fce-bc05-8cb7a4f52fd4);}.b94592bd-8ecb-458b-be95-320681bb6b00{fill:#fff;stroke-width:0.25px;}.abbd79cd-ed5e-4b9e-90ae-2531cfb9f0ce{clip-path:url(#a07e2da9-6ef7-41a3-82be-b7dec0861e8a);}</style><clipPath id="a08cb510-041b-4d2b-9b43-633d46999ea0" transform="translate(87 224.1)"><path class="f8f3584f-8bb9-4464-94fe-a056f0ad88c6" d="M172.5,154s-14.86.21-37,22.37-22.16,77.56-44.32,55.4S2.53,154.21,2.53,109.89,13.61,32.33,35.77,21.25c0,0,0,20.61,18.17,48.09h.11C71.11,95.27,108,127.19,172.5,154Z"/></clipPath><clipPath id="a33ced6d-fa06-4fce-bc05-8cb7a4f52fd4" transform="translate(87 224.1)"><path class="f8f3584f-8bb9-4464-94fe-a056f0ad88c6" d="M346,98.81c0,44.32-77.56,121.88-77.56,121.88s-22.16,33.24-33.24,0S172.5,154,172.5,154c61.27-36.78,101.26-64.27,118.1-84.66,28.21-34.3,11.67-47.63,11.1-48.08C334.92,32.34,346,54.5,346,98.81Z"/></clipPath><clipPath id="a07e2da9-6ef7-41a3-82be-b7dec0861e8a" transform="translate(87 224.1)"><path class="f8f3584f-8bb9-4464-94fe-a056f0ad88c6" d="M290.6,69.34c-98.05-28.92-231.9-1-236.55,0h-.11C35.77,41.86,35.77,21.25,35.77,21.25s121.87-44.32,265.91,0h0C302.27,21.71,318.81,35,290.6,69.34Z"/></clipPath><image id="ba9ba86f-4628-454e-b898-afe42627bb9a" width="768" height="1024" xlink:href="../../../../ClickModel/Images/fab.jpg"/></defs><title>CollarDesign4</title><g class="a9158d3b-b11c-4294-ae51-4fde97e59188"><use transform="translate(0 6.1) scale(0.65)" xlink:href="#ba9ba86f-4628-454e-b898-afe42627bb9a"/></g><path class="f8f3584f-8bb9-4464-94fe-a056f0ad88c6" d="M172.5,154s-14.86.21-37,22.37-22.16,77.56-44.32,55.4S2.53,154.21,2.53,109.89,13.61,32.33,35.77,21.25c0,0,0,20.61,18.17,48.09h.11C71.11,95.27,108,127.19,172.5,154Z" transform="translate(87 224.1)"/><g class="ba97c20e-fc62-462c-bd66-a4661e069611"><use transform="translate(-18.54 -224.1) scale(0.65)" xlink:href="#ba9ba86f-4628-454e-b898-afe42627bb9a"/></g><path class="f8f3584f-8bb9-4464-94fe-a056f0ad88c6" d="M346,98.81c0,44.32-77.56,121.88-77.56,121.88s-22.16,33.24-33.24,0S172.5,154,172.5,154c61.27-36.78,101.26-64.27,118.1-84.66,28.21-34.3,11.67-47.63,11.1-48.08C334.92,32.34,346,54.5,346,98.81Z" transform="translate(87 224.1)"/><path class="b94592bd-8ecb-458b-be95-320681bb6b00" d="M290.6,69.34C273.76,89.73,233.77,117.22,172.5,154,108,127.19,71.11,95.27,54.05,69.34,58.7,68.34,192.55,40.42,290.6,69.34Z" transform="translate(87 224.1)"/><g class="abbd79cd-ed5e-4b9e-90ae-2531cfb9f0ce"><use transform="translate(-49 -174) scale(0.65)" xlink:href="#ba9ba86f-4628-454e-b898-afe42627bb9a"/></g><path class="f8f3584f-8bb9-4464-94fe-a056f0ad88c6" d="M290.6,69.34c-98.05-28.92-231.9-1-236.55,0h-.11C35.77,41.86,35.77,21.25,35.77,21.25s121.87-44.32,265.91,0h0C302.27,21.71,318.81,35,290.6,69.34Z" transform="translate(87 224.1)"/></svg>