<svg id="CuffStyle" xmlns="http://www.w3.org/2000/svg" xmlns:xlink="http://www.w3.org/1999/xlink" viewBox="0 0 355.41 66.36"><defs><style>.cls-1{fill:none;}.cls-1,.cls-4{stroke:#000;stroke-miterlimit:10;}.cls-2{clip-path:url(#clip-path);}.cls-3{clip-path:url(#clip-path-2);}.cls-4{fill:#fff;}.cls-5{clip-path:url(#clip-path-3);}.cls-6{clip-path:url(#clip-path-4);}</style><clipPath id="clip-path" transform="translate(4.2 -154.28)"><path class="cls-1" d="M42.26,171.85v24.2s-7.79,3.9-14,2.34h0a8.77,8.77,0,0,1-5.49-3.9h0a17,17,0,0,1-1.55-4,.52.52,0,0,0,0-.11c-.63-2.89-1.13-7.67-.76-15.42C20.4,175,32.89,175.75,42.26,171.85Z"/></clipPath><clipPath id="clip-path-2" transform="translate(4.2 -154.28)"><path class="cls-1" d="M22.74,194.49c-.68,2-2.55,3.1-4.86,3.56C12.25,199.19,4,196.83,4,196.83V171.07c6.25,3.9,16.4,3.9,16.4,3.9a40.7,40.7,0,0,0,.76,15.42.52.52,0,0,1,0,.11c.67,3,1.46,3.9,1.55,4Z"/></clipPath><clipPath id="clip-path-3" transform="translate(4.2 -154.28)"><path class="cls-1" d="M345.6,171.84v24s-7.72,3.86-13.91,2.31h0a8.66,8.66,0,0,1-5.45-3.86h0a16.63,16.63,0,0,1-1.54-3.95s0-.07,0-.1c-.63-2.88-1.12-7.62-.76-15.3C323.92,174.94,336.31,175.72,345.6,171.84Z"/></clipPath><clipPath id="clip-path-4" transform="translate(4.2 -154.28)"><path class="cls-1" d="M326.24,194.3c-.67,2-2.53,3.07-4.81,3.53-5.59,1.13-13.77-1.21-13.77-1.21V171.07c6.19,3.87,16.26,3.87,16.26,3.87a40.51,40.51,0,0,0,.76,15.3s0,.07,0,.1c.66,2.95,1.45,3.87,1.54,3.95Z"/></clipPath><image id="image" width="768" height="1024" xlink:href="../../../../Template(Backup%20New)/Images/fab.jpg"/></defs><title>CuffStyle1</title><g id="CuffStyleG"><g id="WholeCuff"><g id="CuffSides"><g class="cls-2"><use transform="translate(2.34) scale(0.06)" xlink:href="#image"/></g><path class="cls-1" d="M42.26,171.85v24.2s-7.79,3.9-14,2.34h0a8.77,8.77,0,0,1-5.49-3.9h0a17,17,0,0,1-1.55-4,.52.52,0,0,0,0-.11c-.63-2.89-1.13-7.67-.76-15.42C20.4,175,32.89,175.75,42.26,171.85Z" transform="translate(4.2 -154.28)"/><g class="cls-3"><use transform="translate(-4.2 167.56) scale(0.04)" xlink:href="#image"/></g><path class="cls-1" d="M22.74,194.49c-.68,2-2.55,3.1-4.86,3.56C12.25,199.19,4,196.83,4,196.83V171.07c6.25,3.9,16.4,3.9,16.4,3.9a40.7,40.7,0,0,0,.76,15.42.52.52,0,0,1,0,.11c.67,3,1.46,3.9,1.55,4Z" transform="translate(4.2 -154.28)"/></g><g id="CuffBtns"><circle class="cls-4" cx="30.45" cy="32.01" r="1.56"/><circle class="cls-4" cx="20.3" cy="32.01" r="1.56"/></g><g id="CuffInner"><path class="cls-4" d="M28.19,198.16a33.36,33.36,0,0,1-10.27-.33c2.29-.46,4.15-1.5,4.82-3.53A8.66,8.66,0,0,0,28.19,198.16Z" transform="translate(4.2 -154.28)"/></g></g><g id="WholeCuff-2" data-name="WholeCuff"><g id="CuffSides-2" data-name="CuffSides"><g class="cls-5"><use transform="translate(301.85 154.42) scale(0.06)" xlink:href="#image"/></g><path class="cls-1" d="M345.6,171.84v24s-7.72,3.86-13.91,2.31h0a8.66,8.66,0,0,1-5.45-3.86h0a16.63,16.63,0,0,1-1.54-3.95s0-.07,0-.1c-.63-2.88-1.12-7.62-.76-15.3C323.92,174.94,336.31,175.72,345.6,171.84Z" transform="translate(4.2 -154.28)"/><g class="cls-6"><use transform="translate(299.53 167.59) scale(0.04)" xlink:href="#image"/></g><path class="cls-1" d="M326.24,194.3c-.67,2-2.53,3.07-4.81,3.53-5.59,1.13-13.77-1.21-13.77-1.21V171.07c6.19,3.87,16.26,3.87,16.26,3.87a40.51,40.51,0,0,0,.76,15.3s0,.07,0,.1c.66,2.95,1.45,3.87,1.54,3.95Z" transform="translate(4.2 -154.28)"/></g><g id="CuffBtns-2" data-name="CuffBtns"><circle class="cls-4" cx="333.93" cy="31.89" r="1.55"/><circle class="cls-4" cx="323.86" cy="31.89" r="1.55"/></g><g id="CuffInner-2" data-name="CuffInner"><path class="cls-4" d="M331.69,198.16a33.3,33.3,0,0,1-10.26-.33c2.28-.46,4.14-1.5,4.81-3.53A8.66,8.66,0,0,0,331.69,198.16Z" transform="translate(4.2 -154.28)"/></g></g></g></svg>