<svg id="Layer_1" data-name="Layer 1" xmlns="http://www.w3.org/2000/svg" xmlns:xlink="http://www.w3.org/1999/xlink" viewBox="0 0 448.71 598.28"><defs><style>.cls-1,.cls-3{fill:none;}.cls-1,.cls-3,.cls-4{stroke:#000;stroke-miterlimit:10;}.cls-2{clip-path:url(#clip-path);}.cls-3{stroke-width:2px;}.cls-4{fill:#fff;}</style><clipPath id="clip-path" transform="translate(67.28 151.83)"><path class="cls-1" d="M3.87,210s218.81-46.88,343.85,0V38S191.43-24.49,3.87,38Z"/></clipPath></defs><title>CuffDesign2</title><g class="cls-2"><image width="768" height="1024" transform="translate(0 0) scale(0.58)" xlink:href="../../fab.jpg"/></g><path class="cls-1" d="M3.87,210s218.81-46.88,343.85,0V38S191.43-24.49,3.87,38Z" transform="translate(67.28 151.83)"/><path id="CuffLine" class="cls-3" d="M156,190.49s66.7,3.83,66.7-43.05V11.11" transform="translate(67.28 151.83)"/><circle id="CuffBtnCircle" class="cls-4" cx="219.63" cy="260.19" r="23.44"/><path id="CuffStyle2Path" class="cls-1" d="M343.22,208.33c12,4,0,12,0,12-140,42-339,0-339,0s-4-4,0-10" transform="translate(67.28 151.83)"/></svg>