<svg id="f1c361f5-96e6-44e3-9e82-f71f6f3d9593" data-name="Layer 1" xmlns="http://www.w3.org/2000/svg" xmlns:xlink="http://www.w3.org/1999/xlink" viewBox="0 0 933.52 1244.69"><defs><style>.f473d966-24c4-4d5d-a219-2a8235a50bf3{fill:none;}.a34d608a-da89-4349-a5b0-2ef186a7c78c,.f473d966-24c4-4d5d-a219-2a8235a50bf3{stroke:#000;stroke-miterlimit:10;}.a55122c4-cc1c-4a95-813b-6b94fb28861a{clip-path:url(#ad510a6c-ce66-4fd6-a78f-c17df477c4ff);}.a34d608a-da89-4349-a5b0-2ef186a7c78c{fill:#fff;}</style><clipPath id="ad510a6c-ce66-4fd6-a78f-c17df477c4ff" transform="translate(208.31 389.69)"><path class="f473d966-24c4-4d5d-a219-2a8235a50bf3" d="M305.82,38.94V212.87S230,206,175.87,171.5c-16.53,14-31.56,16.52-31.56,16.52-62.12,0-99.39,24.85-99.39,24.85V38.94C116,11.61,175,8.38,218.85,13.34,274.64,19.43,305.82,38.94,305.82,38.94Z"/></clipPath></defs><title>CuffDesign7</title><g class="a55122c4-cc1c-4a95-813b-6b94fb28861a"><image width="768" height="1024" transform="scale(1.22)" xlink:href="../../../../ClickModel/Images/fab.jpg"/></g><path class="f473d966-24c4-4d5d-a219-2a8235a50bf3" d="M305.82,38.94V212.87S230,206,175.87,171.5c-16.53,14-31.56,16.52-31.56,16.52-62.12,0-99.39,24.85-99.39,24.85V38.94C116,11.61,175,8.38,218.85,13.34,274.64,19.43,305.82,38.94,305.82,38.94Z" transform="translate(208.31 389.69)"/><path class="a34d608a-da89-4349-a5b0-2ef186a7c78c" d="M305.82,212.87c-136.66,74.54-260.9,0-260.9,0S82.19,188,144.31,188c0,0,15-2.48,31.56-16.52C230,206,305.82,212.87,305.82,212.87Z" transform="translate(208.31 389.69)"/><path class="f473d966-24c4-4d5d-a219-2a8235a50bf3" d="M194,11V122.18a73,73,0,0,1-9.51,36.48c-7.87,13.69-22,27.87-47,29.84" transform="translate(208.31 389.69)"/><circle class="a34d608a-da89-4349-a5b0-2ef186a7c78c" cx="358.83" cy="447.27" r="18.64"/></svg>