<svg id="bc4089ff-0aeb-4fae-bd35-0dae2feb698f" data-name="Layer 2" xmlns="http://www.w3.org/2000/svg" xmlns:xlink="http://www.w3.org/1999/xlink" viewBox="0 0 458.72 465"><defs><style>.eb9cdf28-4546-4462-bf76-65c060ad00c4,.f8a6a14f-c1b7-45bb-bda5-0b0eda8e2487{fill:none;stroke:#000;stroke-miterlimit:10;}.eb9cdf28-4546-4462-bf76-65c060ad00c4{stroke-width:2px;}.a05a85e1-1347-44e7-8cc5-7eb1c334f042{clip-path:url(#ea687bab-a228-4b71-8ab7-c8440bc396d8);}.fd5db5f4-7452-4271-8205-4c087ff441ec{clip-path:url(#b80270d6-c9a0-4021-925d-9994beab1c50);}.fc60d66e-bb0b-4ed6-a5c5-02953fe99ebf{clip-path:url(#f68f552d-33f1-4f2c-a0f6-f13125925c1f);}.e5f678f1-3454-49ec-a07c-4197c9341f15{clip-path:url(#e3adc14c-18a3-4c5b-b738-60c01e03d756);}</style><clipPath id="ea687bab-a228-4b71-8ab7-c8440bc396d8" transform="translate(54 107)"><path class="eb9cdf28-4546-4462-bf76-65c060ad00c4" d="M309.42,48.29a144.93,144.93,0,0,1-27.87,32.86c-104.49-43.69-210.15,0-210.15,0A143.33,143.33,0,0,1,41,44.07l.22-.11S175-26.4,308.65,47.48C308.65,47.48,308.93,47.76,309.42,48.29Z"/></clipPath><clipPath id="b80270d6-c9a0-4021-925d-9994beab1c50" transform="translate(54 107)"><path class="eb9cdf28-4546-4462-bf76-65c060ad00c4" d="M150.49,115.85,71.4,151.63,6.06,181.18S2.54,62,41,44.07A143.33,143.33,0,0,0,71.4,81.15C89.34,96.85,114.92,111.2,150.49,115.85Z"/></clipPath><clipPath id="f68f552d-33f1-4f2c-a0f6-f13125925c1f" transform="translate(54 107)"><path class="eb9cdf28-4546-4462-bf76-65c060ad00c4" d="M340.31,177.67l-43.94-19.78-93.56-42.08c35.36-4.71,60.84-19,78.74-34.66a144.93,144.93,0,0,0,27.87-32.86C315.33,54.77,353.3,99.73,340.31,177.67Z"/></clipPath><clipPath id="e3adc14c-18a3-4c5b-b738-60c01e03d756" transform="translate(54 107)"><path class="eb9cdf28-4546-4462-bf76-65c060ad00c4" d="M202.81,115.81a186.81,186.81,0,0,1-23.36,1.62h-1c-1.26,0-2.6,0-4,0h-.67a188.06,188.06,0,0,1-23.33-1.58L71.4,151.63s33.85,27.9,93.38,32.72c35.36,2.92,79.8-2.36,131.59-26.46ZM185.5,170.63a10.56,10.56,0,1,1,10.56-10.56A10.54,10.54,0,0,1,185.5,170.63Z"/></clipPath><image id="efcbe493-764d-4e34-826a-4d71dde97a7f" width="768" height="1024" xlink:href="../../../../ClickModel/Images/fab.jpg"/></defs><title>CutAwayExtra</title><g class="a05a85e1-1347-44e7-8cc5-7eb1c334f042"><use transform="translate(90) scale(0.36 0.35)" xlink:href="#efcbe493-764d-4e34-826a-4d71dde97a7f"/></g><path class="eb9cdf28-4546-4462-bf76-65c060ad00c4" d="M309.42,48.29a144.93,144.93,0,0,1-27.87,32.86c-104.49-43.69-210.15,0-210.15,0A143.33,143.33,0,0,1,41,44.07l.22-.11S175-26.4,308.65,47.48C308.65,47.48,308.93,47.76,309.42,48.29Z" transform="translate(54 107)"/><g class="fd5db5f4-7452-4271-8205-4c087ff441ec"><use transform="translate(-54 -62) scale(0.34 0.34)" xlink:href="#efcbe493-764d-4e34-826a-4d71dde97a7f"/></g><path class="eb9cdf28-4546-4462-bf76-65c060ad00c4" d="M150.49,115.85,71.4,151.63,6.06,181.18S2.54,62,41,44.07A143.33,143.33,0,0,0,71.4,81.15C89.34,96.85,114.92,111.2,150.49,115.85Z" transform="translate(54 107)"/><g class="fc60d66e-bb0b-4ed6-a5c5-02953fe99ebf"><use transform="translate(141 -62) scale(0.34 0.34)" xlink:href="#efcbe493-764d-4e34-826a-4d71dde97a7f"/></g><path class="eb9cdf28-4546-4462-bf76-65c060ad00c4" d="M340.31,177.67l-43.94-19.78-93.56-42.08c35.36-4.71,60.84-19,78.74-34.66a144.93,144.93,0,0,0,27.87-32.86C315.33,54.77,353.3,99.73,340.31,177.67Z" transform="translate(54 107)"/><g class="e5f678f1-3454-49ec-a07c-4197c9341f15"><use transform="translate(42 8) scale(0.34 0.34)" xlink:href="#efcbe493-764d-4e34-826a-4d71dde97a7f"/></g><path class="eb9cdf28-4546-4462-bf76-65c060ad00c4" d="M202.81,115.81a186.81,186.81,0,0,1-23.36,1.62h-1c-1.26,0-2.6,0-4,0h-.67a188.06,188.06,0,0,1-23.33-1.58L71.4,151.63s33.85,27.9,93.38,32.72c35.36,2.92,79.8-2.36,131.59-26.46ZM185.5,170.63a10.56,10.56,0,1,1,10.56-10.56A10.54,10.54,0,0,1,185.5,170.63Z" transform="translate(54 107)"/><path class="f8a6a14f-c1b7-45bb-bda5-0b0eda8e2487" d="M281.55,81.15c-17.9,15.66-43.38,29.95-78.74,34.66a186.81,186.81,0,0,1-23.36,1.62h-1c-1.26,0-2.6,0-4,0h-.67a188.06,188.06,0,0,1-23.33-1.58c-35.57-4.65-61.15-19-79.09-34.7C71.4,81.15,177.06,37.46,281.55,81.15Z" transform="translate(54 107)"/><path class="eb9cdf28-4546-4462-bf76-65c060ad00c4" d="M171.29,117.43s-9.61,11.75-6.49,67.66" transform="translate(54 107)"/><circle class="f8a6a14f-c1b7-45bb-bda5-0b0eda8e2487" cx="239.5" cy="267.07" r="10.56"/></svg>