<svg id="e5ce533d-24a3-43c3-b239-995049df3ca5" data-name="Layer 1" xmlns="http://www.w3.org/2000/svg" viewBox="0 0 1440.2 1784.67"><defs><style>.b69c7123-8c7a-4be7-b301-982b0d29893e{fill:#b58d5d;}.fae965ab-82e6-4edb-937c-2784a31d8fa1{fill:#dab073;}.a1e473bb-4fe9-4c81-9877-f7ae64e1e7c8,.b233ce58-4c5e-4fb2-8d70-b38cc277694e,.b5955d43-e67a-45a5-8c90-c2a1ad93f75a{fill:#fff;}.a1e473bb-4fe9-4c81-9877-f7ae64e1e7c8{opacity:0.17;}.b233ce58-4c5e-4fb2-8d70-b38cc277694e{opacity:0.26;}.f64dbf1a-eb02-4c03-8452-0649285e641b{fill:#469bc1;}.b5955d43-e67a-45a5-8c90-c2a1ad93f75a{opacity:0.31;}.ab977af9-7c9e-4977-b9f5-de263c4b7a3a{fill:#37819b;}.fa003c84-3f4b-4080-923a-78cd8a741b98{fill:#ad8959;}</style></defs><title>Thread</title><path class="b69c7123-8c7a-4be7-b301-982b0d29893e" d="M3595,3082.61c-129.67-47.29-347.78-78.33-595-78.33s-465.34,31-595,78.33l-125.09-27.8v128.86c0,99.08,322.4,179.4,720.1,179.4s720.1-80.32,720.1-179.4V3054.81Z" transform="translate(-2279.9 -1578.4)"/><path class="fae965ab-82e6-4edb-937c-2784a31d8fa1" d="M3720.1,3054.81c0,99.08-322.4,179.4-720.1,179.4s-720.1-80.32-720.1-179.4c0-59.77,117.35-112.71,297.77-145.31,118.64-21.44,264.56-34.08,422.33-34.08s303.69,12.64,422.33,34.08C3602.75,2942.1,3720.1,2995,3720.1,3054.81Z" transform="translate(-2279.9 -1578.4)"/><path class="a1e473bb-4fe9-4c81-9877-f7ae64e1e7c8" d="M3159.3,2879.83c88.82,29.83,141.37,66.77,141.37,106.76,0,99.08-322.4,179.4-720.1,179.4-54.74,0-108.05-1.53-159.3-4.41,131.21,44.07,341.58,72.63,578.73,72.63,397.7,0,720.1-80.32,720.1-179.4C3720.1,2969.38,3480.34,2897.89,3159.3,2879.83Z" transform="translate(-2279.9 -1578.4)"/><path class="b233ce58-4c5e-4fb2-8d70-b38cc277694e" d="M3000,3222.84c-390.06,0-707.68-77.27-719.73-173.71a45,45,0,0,0-.37,5.68c0,99.08,322.4,179.4,720.1,179.4s720.1-80.32,720.1-179.4a45,45,0,0,0-.37-5.68C3707.68,3145.57,3390.06,3222.84,3000,3222.84Z" transform="translate(-2279.9 -1578.4)"/><path class="b233ce58-4c5e-4fb2-8d70-b38cc277694e" d="M3466.51,2958.92c0,64.18-208.87,116.22-466.51,116.22s-466.51-52-466.51-116.22c0-17.67,15.84-34.43,44.18-49.42,118.64-21.44,264.56-34.08,422.33-34.08s303.69,12.64,422.33,34.08C3450.67,2924.49,3466.51,2941.25,3466.51,2958.92Z" transform="translate(-2279.9 -1578.4)"/><path class="f64dbf1a-eb02-4c03-8452-0649285e641b" d="M3414.38,2933.57c-71.5,39.29-230.29,66.62-414.72,66.62-184,0-342.45-27.2-414.19-66.34a22.45,22.45,0,0,0-33.19,19.72v.28a22.52,22.52,0,0,0,7,16.28c51,48.72,228.85,84.68,440.4,84.68,212.85,0,391.57-36.4,441.33-85.58a22.51,22.51,0,0,0,6.73-16h0A22.46,22.46,0,0,0,3414.38,2933.57Z" transform="translate(-2279.9 -1578.4)"/><path class="f64dbf1a-eb02-4c03-8452-0649285e641b" d="M3438,2934.76a22.35,22.35,0,0,0-23.65-1.19c-71.5,39.29-230.29,66.62-414.72,66.62-184,0-342.45-27.2-414.19-66.34a22.29,22.29,0,0,0-23.66,1.36c54.17,47.54,229.69,82.35,437.85,82.35C3208.5,3017.56,3384.47,2982.52,3438,2934.76Z" transform="translate(-2279.9 -1578.4)"/><path class="b5955d43-e67a-45a5-8c90-c2a1ad93f75a" d="M3414.62,2943.52l-.24.13c-71.5,39.28-230.29,66.61-414.72,66.61-184,0-342.45-27.19-414.19-66.33q-.53-.29-1-.54c-8.49-4.09-15,8.28-7,13.24,67.36,41.63,231,71,422.26,71s355.06-29.41,422.36-71.07C3430.22,2951.5,3423.12,2939,3414.62,2943.52Z" transform="translate(-2279.9 -1578.4)"/><path class="ab977af9-7c9e-4977-b9f5-de263c4b7a3a" d="M3441,2962.2c-49.76,49.17-228.48,85.58-441.33,85.58-211.55,0-389.39-36-440.4-84.69a22.51,22.51,0,0,1-6.72-12.91,23.51,23.51,0,0,0-.26,3.39v.28a22.52,22.52,0,0,0,7,16.28c51,48.72,228.85,84.68,440.4,84.68,212.85,0,391.57-36.4,441.33-85.58a22.51,22.51,0,0,0,6.73-16,24,24,0,0,0-.28-3.54A22.6,22.6,0,0,1,3441,2962.2Z" transform="translate(-2279.9 -1578.4)"/><path class="f64dbf1a-eb02-4c03-8452-0649285e641b" d="M3414.38,2881c-71.5,39.29-230.29,66.61-414.72,66.61-184,0-342.45-27.19-414.19-66.33a22.45,22.45,0,0,0-33.19,19.72v.28a22.52,22.52,0,0,0,7,16.28c51,48.72,228.85,84.68,440.4,84.68,212.85,0,391.57-36.4,441.33-85.58a22.52,22.52,0,0,0,6.73-16h0A22.46,22.46,0,0,0,3414.38,2881Z" transform="translate(-2279.9 -1578.4)"/><path class="f64dbf1a-eb02-4c03-8452-0649285e641b" d="M3438,2882.18a22.38,22.38,0,0,0-23.65-1.18c-71.5,39.29-230.29,66.61-414.72,66.61-184,0-342.45-27.19-414.19-66.33a22.29,22.29,0,0,0-23.66,1.36C2616,2930.17,2791.5,2965,2999.66,2965,3208.5,2965,3384.47,2930,3438,2882.18Z" transform="translate(-2279.9 -1578.4)"/><path class="b5955d43-e67a-45a5-8c90-c2a1ad93f75a" d="M3414.62,2891l-.24.13c-71.5,39.28-230.29,66.61-414.72,66.61-184,0-342.45-27.2-414.19-66.33q-.53-.29-1-.54c-8.49-4.09-15,8.28-7,13.24,67.36,41.63,231,71,422.26,71S3354.72,2945.66,3422,2904C3430.22,2898.93,3423.12,2886.4,3414.62,2891Z" transform="translate(-2279.9 -1578.4)"/><path class="ab977af9-7c9e-4977-b9f5-de263c4b7a3a" d="M3441,2909.63c-49.76,49.17-228.48,85.58-441.33,85.58-211.55,0-389.39-36-440.4-84.69a22.54,22.54,0,0,1-6.72-12.91,23.51,23.51,0,0,0-.26,3.39v.28a22.52,22.52,0,0,0,7,16.28c51,48.72,228.85,84.68,440.4,84.68,212.85,0,391.57-36.4,441.33-85.58a22.52,22.52,0,0,0,6.73-16,23.94,23.94,0,0,0-.28-3.54A22.6,22.6,0,0,1,3441,2909.63Z" transform="translate(-2279.9 -1578.4)"/><path class="f64dbf1a-eb02-4c03-8452-0649285e641b" d="M3414.38,2828.43c-71.5,39.29-230.29,66.61-414.72,66.61-184,0-342.45-27.19-414.19-66.33a22.45,22.45,0,0,0-33.19,19.72v.28a22.5,22.5,0,0,0,7,16.27c51,48.73,228.85,84.69,440.4,84.69,212.85,0,391.57-36.4,441.33-85.58a22.55,22.55,0,0,0,6.73-16h0A22.46,22.46,0,0,0,3414.38,2828.43Z" transform="translate(-2279.9 -1578.4)"/><path class="f64dbf1a-eb02-4c03-8452-0649285e641b" d="M3438,2829.61a22.38,22.38,0,0,0-23.65-1.18c-71.5,39.29-230.29,66.61-414.72,66.61-184,0-342.45-27.19-414.19-66.33a22.29,22.29,0,0,0-23.66,1.36c54.17,47.53,229.69,82.35,437.85,82.35C3208.5,2912.42,3384.47,2877.38,3438,2829.61Z" transform="translate(-2279.9 -1578.4)"/><path class="b5955d43-e67a-45a5-8c90-c2a1ad93f75a" d="M3414.62,2838.37l-.24.14c-71.5,39.28-230.29,66.61-414.72,66.61-184,0-342.45-27.2-414.19-66.33q-.53-.28-1-.54c-8.49-4.09-15,8.28-7,13.23,67.36,41.64,231,71,422.26,71s355.06-29.41,422.36-71.07C3430.22,2846.35,3423.12,2833.83,3414.62,2838.37Z" transform="translate(-2279.9 -1578.4)"/><path class="ab977af9-7c9e-4977-b9f5-de263c4b7a3a" d="M3441,2857.06c-49.76,49.17-228.48,85.57-441.33,85.57-211.55,0-389.39-36-440.4-84.68a22.53,22.53,0,0,1-6.72-12.92,23.54,23.54,0,0,0-.26,3.4v.28a22.5,22.5,0,0,0,7,16.27c51,48.73,228.85,84.69,440.4,84.69,212.85,0,391.57-36.4,441.33-85.58a22.55,22.55,0,0,0,6.73-16,23.91,23.91,0,0,0-.28-3.53A22.63,22.63,0,0,1,3441,2857.06Z" transform="translate(-2279.9 -1578.4)"/><path class="f64dbf1a-eb02-4c03-8452-0649285e641b" d="M3414.38,2775.86c-71.5,39.28-230.29,66.61-414.72,66.61-184,0-342.45-27.19-414.19-66.33a22.45,22.45,0,0,0-33.19,19.72v.28a22.5,22.5,0,0,0,7,16.27c51,48.73,228.85,84.69,440.4,84.69,212.85,0,391.57-36.4,441.33-85.58a22.55,22.55,0,0,0,6.73-16h0A22.46,22.46,0,0,0,3414.38,2775.86Z" transform="translate(-2279.9 -1578.4)"/><path class="f64dbf1a-eb02-4c03-8452-0649285e641b" d="M3438,2777a22.38,22.38,0,0,0-23.65-1.18c-71.5,39.28-230.29,66.61-414.72,66.61-184,0-342.45-27.19-414.19-66.33a22.27,22.27,0,0,0-23.66,1.36c54.17,47.53,229.69,82.35,437.85,82.35C3208.5,2859.85,3384.47,2824.81,3438,2777Z" transform="translate(-2279.9 -1578.4)"/><path class="b5955d43-e67a-45a5-8c90-c2a1ad93f75a" d="M3414.62,2785.8l-.24.13c-71.5,39.29-230.29,66.62-414.72,66.62-184,0-342.45-27.2-414.19-66.33l-1-.54c-8.49-4.09-15,8.28-7,13.23,67.36,41.63,231,71,422.26,71s355.06-29.41,422.36-71.07C3430.22,2793.78,3423.12,2781.26,3414.62,2785.8Z" transform="translate(-2279.9 -1578.4)"/><path class="ab977af9-7c9e-4977-b9f5-de263c4b7a3a" d="M3441,2804.49c-49.76,49.17-228.48,85.57-441.33,85.57-211.55,0-389.39-36-440.4-84.68a22.53,22.53,0,0,1-6.72-12.92,23.54,23.54,0,0,0-.26,3.4v.28a22.5,22.5,0,0,0,7,16.27c51,48.73,228.85,84.69,440.4,84.69,212.85,0,391.57-36.4,441.33-85.58a22.55,22.55,0,0,0,6.73-16,23.91,23.91,0,0,0-.28-3.53A22.63,22.63,0,0,1,3441,2804.49Z" transform="translate(-2279.9 -1578.4)"/><path class="f64dbf1a-eb02-4c03-8452-0649285e641b" d="M3414.38,2723.29c-71.5,39.28-230.29,66.61-414.72,66.61-184,0-342.45-27.2-414.19-66.33a22.45,22.45,0,0,0-33.19,19.71v.29a22.5,22.5,0,0,0,7,16.27c51,48.73,228.85,84.69,440.4,84.69,212.85,0,391.57-36.4,441.33-85.58a22.55,22.55,0,0,0,6.73-16h0A22.46,22.46,0,0,0,3414.38,2723.29Z" transform="translate(-2279.9 -1578.4)"/><path class="f64dbf1a-eb02-4c03-8452-0649285e641b" d="M3438,2724.47a22.38,22.38,0,0,0-23.65-1.18c-71.5,39.28-230.29,66.61-414.72,66.61-184,0-342.45-27.2-414.19-66.33a22.27,22.27,0,0,0-23.66,1.36c54.17,47.53,229.69,82.35,437.85,82.35C3208.5,2807.28,3384.47,2772.24,3438,2724.47Z" transform="translate(-2279.9 -1578.4)"/><path class="b5955d43-e67a-45a5-8c90-c2a1ad93f75a" d="M3414.62,2733.23l-.24.13c-71.5,39.29-230.29,66.62-414.72,66.62-184,0-342.45-27.2-414.19-66.33l-1-.55c-8.49-4.08-15,8.29-7,13.24,67.36,41.63,231,71,422.26,71S3354.72,2788,3422,2746.29C3430.22,2741.21,3423.12,2728.69,3414.62,2733.23Z" transform="translate(-2279.9 -1578.4)"/><path class="ab977af9-7c9e-4977-b9f5-de263c4b7a3a" d="M3441,2751.91c-49.76,49.18-228.48,85.58-441.33,85.58-211.55,0-389.39-36-440.4-84.68a22.53,22.53,0,0,1-6.72-12.92,23.51,23.51,0,0,0-.26,3.39v.29a22.5,22.5,0,0,0,7,16.27c51,48.73,228.85,84.69,440.4,84.69,212.85,0,391.57-36.4,441.33-85.58a22.55,22.55,0,0,0,6.73-16,23.91,23.91,0,0,0-.28-3.53A22.57,22.57,0,0,1,3441,2751.91Z" transform="translate(-2279.9 -1578.4)"/><path class="f64dbf1a-eb02-4c03-8452-0649285e641b" d="M3414.38,2670.72c-71.5,39.28-230.29,66.61-414.72,66.61-184,0-342.45-27.2-414.19-66.33a22.44,22.44,0,0,0-33.19,19.71v.29a22.5,22.5,0,0,0,7,16.27c51,48.72,228.85,84.69,440.4,84.69,212.85,0,391.57-36.4,441.33-85.58a22.55,22.55,0,0,0,6.73-16h0A22.46,22.46,0,0,0,3414.38,2670.72Z" transform="translate(-2279.9 -1578.4)"/><path class="f64dbf1a-eb02-4c03-8452-0649285e641b" d="M3438,2671.9a22.38,22.38,0,0,0-23.65-1.18c-71.5,39.28-230.29,66.61-414.72,66.61-184,0-342.45-27.2-414.19-66.33a22.27,22.27,0,0,0-23.66,1.36c54.17,47.53,229.69,82.35,437.85,82.35C3208.5,2754.71,3384.47,2719.67,3438,2671.9Z" transform="translate(-2279.9 -1578.4)"/><path class="b5955d43-e67a-45a5-8c90-c2a1ad93f75a" d="M3414.62,2680.66l-.24.13c-71.5,39.29-230.29,66.62-414.72,66.62-184,0-342.45-27.2-414.19-66.33-.35-.2-.7-.38-1-.55-8.49-4.09-15,8.29-7,13.24,67.36,41.63,231,71,422.26,71s355.06-29.41,422.36-71.07C3430.22,2688.64,3423.12,2676.12,3414.62,2680.66Z" transform="translate(-2279.9 -1578.4)"/><path class="ab977af9-7c9e-4977-b9f5-de263c4b7a3a" d="M3441,2699.34c-49.76,49.18-228.48,85.58-441.33,85.58-211.55,0-389.39-36-440.4-84.68a22.53,22.53,0,0,1-6.72-12.92,23.51,23.51,0,0,0-.26,3.39v.29a22.5,22.5,0,0,0,7,16.27c51,48.72,228.85,84.69,440.4,84.69,212.85,0,391.57-36.4,441.33-85.58a22.55,22.55,0,0,0,6.73-16,23.91,23.91,0,0,0-.28-3.53A22.57,22.57,0,0,1,3441,2699.34Z" transform="translate(-2279.9 -1578.4)"/><path class="f64dbf1a-eb02-4c03-8452-0649285e641b" d="M3414.38,2618.14c-71.5,39.29-230.29,66.62-414.72,66.62-184,0-342.45-27.2-414.19-66.33a22.44,22.44,0,0,0-33.19,19.71v.29a22.5,22.5,0,0,0,7,16.27c51,48.72,228.85,84.69,440.4,84.69,212.85,0,391.57-36.41,441.33-85.58a22.55,22.55,0,0,0,6.73-16h0A22.47,22.47,0,0,0,3414.38,2618.14Z" transform="translate(-2279.9 -1578.4)"/><path class="f64dbf1a-eb02-4c03-8452-0649285e641b" d="M3438,2619.33a22.4,22.4,0,0,0-23.65-1.19c-71.5,39.29-230.29,66.62-414.72,66.62-184,0-342.45-27.2-414.19-66.33a22.25,22.25,0,0,0-23.66,1.36c54.17,47.53,229.69,82.35,437.85,82.35C3208.5,2702.14,3384.47,2667.1,3438,2619.33Z" transform="translate(-2279.9 -1578.4)"/><path class="b5955d43-e67a-45a5-8c90-c2a1ad93f75a" d="M3414.62,2628.09l-.24.13c-71.5,39.29-230.29,66.62-414.72,66.62-184,0-342.45-27.2-414.19-66.34q-.53-.28-1-.54c-8.49-4.09-15,8.29-7,13.24,67.36,41.63,231,71,422.26,71s355.06-29.41,422.36-71.08C3430.22,2636.07,3423.12,2623.54,3414.62,2628.09Z" transform="translate(-2279.9 -1578.4)"/><path class="ab977af9-7c9e-4977-b9f5-de263c4b7a3a" d="M3441,2646.77c-49.76,49.18-228.48,85.58-441.33,85.58-211.55,0-389.39-36-440.4-84.69a22.48,22.48,0,0,1-6.72-12.91,23.51,23.51,0,0,0-.26,3.39v.29a22.5,22.5,0,0,0,7,16.27c51,48.72,228.85,84.69,440.4,84.69,212.85,0,391.57-36.41,441.33-85.58a22.55,22.55,0,0,0,6.73-16,24.16,24.16,0,0,0-.28-3.54A22.6,22.6,0,0,1,3441,2646.77Z" transform="translate(-2279.9 -1578.4)"/><path class="f64dbf1a-eb02-4c03-8452-0649285e641b" d="M3414.38,2565.57c-71.5,39.29-230.29,66.62-414.72,66.62-184,0-342.45-27.2-414.19-66.33a22.44,22.44,0,0,0-33.19,19.71v.28a22.51,22.51,0,0,0,7,16.28c51,48.72,228.85,84.69,440.4,84.69,212.85,0,391.57-36.41,441.33-85.58a22.55,22.55,0,0,0,6.73-16h0A22.47,22.47,0,0,0,3414.38,2565.57Z" transform="translate(-2279.9 -1578.4)"/><path class="f64dbf1a-eb02-4c03-8452-0649285e641b" d="M3438,2566.76a22.38,22.38,0,0,0-23.65-1.19c-71.5,39.29-230.29,66.62-414.72,66.62-184,0-342.45-27.2-414.19-66.33a22.27,22.27,0,0,0-23.66,1.35c54.17,47.54,229.69,82.36,437.85,82.36C3208.5,2649.57,3384.47,2614.53,3438,2566.76Z" transform="translate(-2279.9 -1578.4)"/><path class="b5955d43-e67a-45a5-8c90-c2a1ad93f75a" d="M3414.62,2575.52l-.24.13c-71.5,39.29-230.29,66.62-414.72,66.62-184,0-342.45-27.2-414.19-66.34q-.53-.29-1-.54c-8.49-4.09-15,8.29-7,13.24,67.36,41.63,231,71,422.26,71s355.06-29.41,422.36-71.07C3430.22,2583.5,3423.12,2571,3414.62,2575.52Z" transform="translate(-2279.9 -1578.4)"/><path class="ab977af9-7c9e-4977-b9f5-de263c4b7a3a" d="M3441,2594.2c-49.76,49.18-228.48,85.58-441.33,85.58-211.55,0-389.39-36-440.4-84.69a22.48,22.48,0,0,1-6.72-12.91,23.51,23.51,0,0,0-.26,3.39v.28a22.51,22.51,0,0,0,7,16.28c51,48.72,228.85,84.69,440.4,84.69,212.85,0,391.57-36.41,441.33-85.58a22.55,22.55,0,0,0,6.73-16,24.16,24.16,0,0,0-.28-3.54A22.6,22.6,0,0,1,3441,2594.2Z" transform="translate(-2279.9 -1578.4)"/><path class="f64dbf1a-eb02-4c03-8452-0649285e641b" d="M3414.38,2513c-71.5,39.29-230.29,66.62-414.72,66.62-184,0-342.45-27.2-414.19-66.33a22.44,22.44,0,0,0-33.19,19.71v.28a22.51,22.51,0,0,0,7,16.28c51,48.72,228.85,84.68,440.4,84.68,212.85,0,391.57-36.4,441.33-85.57a22.55,22.55,0,0,0,6.73-16h0A22.47,22.47,0,0,0,3414.38,2513Z" transform="translate(-2279.9 -1578.4)"/><path class="f64dbf1a-eb02-4c03-8452-0649285e641b" d="M3438,2514.19a22.38,22.38,0,0,0-23.65-1.19c-71.5,39.29-230.29,66.62-414.72,66.62-184,0-342.45-27.2-414.19-66.33a22.27,22.27,0,0,0-23.66,1.35C2616,2562.18,2791.5,2597,2999.66,2597,3208.5,2597,3384.47,2562,3438,2514.19Z" transform="translate(-2279.9 -1578.4)"/><path class="b5955d43-e67a-45a5-8c90-c2a1ad93f75a" d="M3414.62,2523l-.24.13c-71.5,39.29-230.29,66.61-414.72,66.61-184,0-342.45-27.19-414.19-66.33q-.53-.29-1-.54c-8.49-4.09-15,8.29-7,13.24,67.36,41.63,231,71,422.26,71S3354.72,2577.66,3422,2536C3430.22,2530.93,3423.12,2518.4,3414.62,2523Z" transform="translate(-2279.9 -1578.4)"/><path class="ab977af9-7c9e-4977-b9f5-de263c4b7a3a" d="M3441,2541.63c-49.76,49.18-228.48,85.58-441.33,85.58-211.55,0-389.39-36-440.4-84.69a22.48,22.48,0,0,1-6.72-12.91,23.51,23.51,0,0,0-.26,3.39v.28a22.51,22.51,0,0,0,7,16.28c51,48.72,228.85,84.68,440.4,84.68,212.85,0,391.57-36.4,441.33-85.57a22.55,22.55,0,0,0,6.73-16,24.16,24.16,0,0,0-.28-3.54A22.6,22.6,0,0,1,3441,2541.63Z" transform="translate(-2279.9 -1578.4)"/><path class="f64dbf1a-eb02-4c03-8452-0649285e641b" d="M3414.38,2460.43c-71.5,39.29-230.29,66.62-414.72,66.62-184,0-342.45-27.2-414.19-66.34a22.45,22.45,0,0,0-33.19,19.72v.28a22.52,22.52,0,0,0,7,16.28c51,48.72,228.85,84.68,440.4,84.68,212.85,0,391.57-36.4,441.33-85.58a22.51,22.51,0,0,0,6.73-16h0A22.47,22.47,0,0,0,3414.38,2460.43Z" transform="translate(-2279.9 -1578.4)"/><path class="f64dbf1a-eb02-4c03-8452-0649285e641b" d="M3438,2461.62a22.35,22.35,0,0,0-23.65-1.19c-71.5,39.29-230.29,66.62-414.72,66.62-184,0-342.45-27.2-414.19-66.34a22.29,22.29,0,0,0-23.66,1.36c54.17,47.54,229.69,82.36,437.85,82.36C3208.5,2544.43,3384.47,2509.38,3438,2461.62Z" transform="translate(-2279.9 -1578.4)"/><path class="b5955d43-e67a-45a5-8c90-c2a1ad93f75a" d="M3414.62,2470.38l-.24.13c-71.5,39.29-230.29,66.61-414.72,66.61-184,0-342.45-27.19-414.19-66.33q-.53-.28-1-.54c-8.49-4.09-15,8.29-7,13.24,67.36,41.63,231,71,422.26,71s355.06-29.41,422.36-71.07C3430.22,2478.36,3423.12,2465.83,3414.62,2470.38Z" transform="translate(-2279.9 -1578.4)"/><path class="ab977af9-7c9e-4977-b9f5-de263c4b7a3a" d="M3441,2489.06c-49.76,49.18-228.48,85.58-441.33,85.58-211.55,0-389.39-36-440.4-84.69a22.51,22.51,0,0,1-6.72-12.91,23.51,23.51,0,0,0-.26,3.39v.28a22.52,22.52,0,0,0,7,16.28c51,48.72,228.85,84.68,440.4,84.68,212.85,0,391.57-36.4,441.33-85.58a22.51,22.51,0,0,0,6.73-16,24,24,0,0,0-.28-3.54A22.6,22.6,0,0,1,3441,2489.06Z" transform="translate(-2279.9 -1578.4)"/><path class="f64dbf1a-eb02-4c03-8452-0649285e641b" d="M3414.38,2407.86c-71.5,39.29-230.29,66.62-414.72,66.62-184,0-342.45-27.2-414.19-66.34a22.45,22.45,0,0,0-33.19,19.72v.28a22.52,22.52,0,0,0,7,16.28c51,48.72,228.85,84.68,440.4,84.68,212.85,0,391.57-36.4,441.33-85.58a22.51,22.51,0,0,0,6.73-16h0A22.46,22.46,0,0,0,3414.38,2407.86Z" transform="translate(-2279.9 -1578.4)"/><path class="f64dbf1a-eb02-4c03-8452-0649285e641b" d="M3438,2409.05a22.35,22.35,0,0,0-23.65-1.19c-71.5,39.29-230.29,66.62-414.72,66.62-184,0-342.45-27.2-414.19-66.34a22.29,22.29,0,0,0-23.66,1.36c54.17,47.54,229.69,82.35,437.85,82.35C3208.5,2491.85,3384.47,2456.81,3438,2409.05Z" transform="translate(-2279.9 -1578.4)"/><path class="b5955d43-e67a-45a5-8c90-c2a1ad93f75a" d="M3414.62,2417.81l-.24.13c-71.5,39.28-230.29,66.61-414.72,66.61-184,0-342.45-27.19-414.19-66.33l-1-.54c-8.49-4.09-15,8.28-7,13.24,67.36,41.63,231,71,422.26,71s355.06-29.41,422.36-71.07C3430.22,2425.79,3423.12,2413.26,3414.62,2417.81Z" transform="translate(-2279.9 -1578.4)"/><path class="ab977af9-7c9e-4977-b9f5-de263c4b7a3a" d="M3441,2436.49c-49.76,49.17-228.48,85.58-441.33,85.58-211.55,0-389.39-36-440.4-84.69a22.51,22.51,0,0,1-6.72-12.91,23.51,23.51,0,0,0-.26,3.39v.28a22.52,22.52,0,0,0,7,16.28c51,48.72,228.85,84.68,440.4,84.68,212.85,0,391.57-36.4,441.33-85.58a22.51,22.51,0,0,0,6.73-16,24,24,0,0,0-.28-3.54A22.6,22.6,0,0,1,3441,2436.49Z" transform="translate(-2279.9 -1578.4)"/><path class="f64dbf1a-eb02-4c03-8452-0649285e641b" d="M3414.38,2355.29c-71.5,39.29-230.29,66.61-414.72,66.61-184,0-342.45-27.19-414.19-66.33a22.45,22.45,0,0,0-33.19,19.72v.28a22.52,22.52,0,0,0,7,16.28c51,48.72,228.85,84.68,440.4,84.68,212.85,0,391.57-36.4,441.33-85.58a22.52,22.52,0,0,0,6.73-16h0A22.46,22.46,0,0,0,3414.38,2355.29Z" transform="translate(-2279.9 -1578.4)"/><path class="f64dbf1a-eb02-4c03-8452-0649285e641b" d="M3438,2356.47a22.38,22.38,0,0,0-23.65-1.18c-71.5,39.29-230.29,66.61-414.72,66.61-184,0-342.45-27.19-414.19-66.33a22.29,22.29,0,0,0-23.66,1.36c54.17,47.53,229.69,82.35,437.85,82.35C3208.5,2439.28,3384.47,2404.24,3438,2356.47Z" transform="translate(-2279.9 -1578.4)"/><path class="b5955d43-e67a-45a5-8c90-c2a1ad93f75a" d="M3414.62,2365.24l-.24.13c-71.5,39.28-230.29,66.61-414.72,66.61-184,0-342.45-27.2-414.19-66.33q-.53-.29-1-.54c-8.49-4.09-15,8.28-7,13.24,67.36,41.63,231,71,422.26,71S3354.72,2420,3422,2378.29C3430.22,2373.21,3423.12,2360.69,3414.62,2365.24Z" transform="translate(-2279.9 -1578.4)"/><path class="ab977af9-7c9e-4977-b9f5-de263c4b7a3a" d="M3441,2383.92c-49.76,49.17-228.48,85.58-441.33,85.58-211.55,0-389.39-36-440.4-84.69a22.54,22.54,0,0,1-6.72-12.91,23.51,23.51,0,0,0-.26,3.39v.28a22.52,22.52,0,0,0,7,16.28c51,48.72,228.85,84.68,440.4,84.68,212.85,0,391.57-36.4,441.33-85.58a22.52,22.52,0,0,0,6.73-16,23.94,23.94,0,0,0-.28-3.54A22.6,22.6,0,0,1,3441,2383.92Z" transform="translate(-2279.9 -1578.4)"/><path class="f64dbf1a-eb02-4c03-8452-0649285e641b" d="M3414.38,2302.72c-71.5,39.29-230.29,66.61-414.72,66.61-184,0-342.45-27.19-414.19-66.33a22.45,22.45,0,0,0-33.19,19.72v.28a22.5,22.5,0,0,0,7,16.27c51,48.73,228.85,84.69,440.4,84.69,212.85,0,391.57-36.4,441.33-85.58a22.55,22.55,0,0,0,6.73-16h0A22.46,22.46,0,0,0,3414.38,2302.72Z" transform="translate(-2279.9 -1578.4)"/><path class="f64dbf1a-eb02-4c03-8452-0649285e641b" d="M3438,2303.9a22.38,22.38,0,0,0-23.65-1.18c-71.5,39.29-230.29,66.61-414.72,66.61-184,0-342.45-27.19-414.19-66.33a22.27,22.27,0,0,0-23.66,1.36c54.17,47.53,229.69,82.35,437.85,82.35C3208.5,2386.71,3384.47,2351.67,3438,2303.9Z" transform="translate(-2279.9 -1578.4)"/><path class="b5955d43-e67a-45a5-8c90-c2a1ad93f75a" d="M3414.62,2312.66l-.24.14c-71.5,39.28-230.29,66.61-414.72,66.61-184,0-342.45-27.2-414.19-66.33q-.53-.28-1-.54c-8.49-4.09-15,8.28-7,13.23,67.36,41.64,231,71,422.26,71s355.06-29.41,422.36-71.07C3430.22,2320.64,3423.12,2308.12,3414.62,2312.66Z" transform="translate(-2279.9 -1578.4)"/><path class="ab977af9-7c9e-4977-b9f5-de263c4b7a3a" d="M3441,2331.35c-49.76,49.17-228.48,85.57-441.33,85.57-211.55,0-389.39-36-440.4-84.68a22.53,22.53,0,0,1-6.72-12.92,23.54,23.54,0,0,0-.26,3.4v.28a22.5,22.5,0,0,0,7,16.27c51,48.73,228.85,84.69,440.4,84.69,212.85,0,391.57-36.4,441.33-85.58a22.55,22.55,0,0,0,6.73-16,23.91,23.91,0,0,0-.28-3.53A22.63,22.63,0,0,1,3441,2331.35Z" transform="translate(-2279.9 -1578.4)"/><path class="f64dbf1a-eb02-4c03-8452-0649285e641b" d="M3414.38,2250.15c-71.5,39.28-230.29,66.61-414.72,66.61-184,0-342.45-27.19-414.19-66.33a22.45,22.45,0,0,0-33.19,19.72v.28a22.5,22.5,0,0,0,7,16.27c51,48.73,228.85,84.69,440.4,84.69,212.85,0,391.57-36.4,441.33-85.58a22.55,22.55,0,0,0,6.73-16h0A22.46,22.46,0,0,0,3414.38,2250.15Z" transform="translate(-2279.9 -1578.4)"/><path class="f64dbf1a-eb02-4c03-8452-0649285e641b" d="M3438,2251.33a22.38,22.38,0,0,0-23.65-1.18c-71.5,39.28-230.29,66.61-414.72,66.61-184,0-342.45-27.19-414.19-66.33a22.27,22.27,0,0,0-23.66,1.36c54.17,47.53,229.69,82.35,437.85,82.35C3208.5,2334.14,3384.47,2299.1,3438,2251.33Z" transform="translate(-2279.9 -1578.4)"/><path class="b5955d43-e67a-45a5-8c90-c2a1ad93f75a" d="M3414.62,2260.09l-.24.13c-71.5,39.29-230.29,66.62-414.72,66.62-184,0-342.45-27.2-414.19-66.33q-.53-.28-1-.54c-8.49-4.09-15,8.28-7,13.23,67.36,41.63,231,71,422.26,71s355.06-29.41,422.36-71.07C3430.22,2268.07,3423.12,2255.55,3414.62,2260.09Z" transform="translate(-2279.9 -1578.4)"/><path class="ab977af9-7c9e-4977-b9f5-de263c4b7a3a" d="M3441,2278.78c-49.76,49.17-228.48,85.57-441.33,85.57-211.55,0-389.39-36-440.4-84.68a22.53,22.53,0,0,1-6.72-12.92,23.54,23.54,0,0,0-.26,3.4v.28a22.5,22.5,0,0,0,7,16.27c51,48.73,228.85,84.69,440.4,84.69,212.85,0,391.57-36.4,441.33-85.58a22.55,22.55,0,0,0,6.73-16,23.91,23.91,0,0,0-.28-3.53A22.63,22.63,0,0,1,3441,2278.78Z" transform="translate(-2279.9 -1578.4)"/><path class="f64dbf1a-eb02-4c03-8452-0649285e641b" d="M3414.38,2197.58c-71.5,39.28-230.29,66.61-414.72,66.61-184,0-342.45-27.2-414.19-66.33a22.45,22.45,0,0,0-33.19,19.71v.29a22.5,22.5,0,0,0,7,16.27c51,48.73,228.85,84.69,440.4,84.69,212.85,0,391.57-36.4,441.33-85.58a22.55,22.55,0,0,0,6.73-16h0A22.46,22.46,0,0,0,3414.38,2197.58Z" transform="translate(-2279.9 -1578.4)"/><path class="f64dbf1a-eb02-4c03-8452-0649285e641b" d="M3438,2198.76a22.38,22.38,0,0,0-23.65-1.18c-71.5,39.28-230.29,66.61-414.72,66.61-184,0-342.45-27.2-414.19-66.33a22.27,22.27,0,0,0-23.66,1.36c54.17,47.53,229.69,82.35,437.85,82.35C3208.5,2281.57,3384.47,2246.53,3438,2198.76Z" transform="translate(-2279.9 -1578.4)"/><path class="b5955d43-e67a-45a5-8c90-c2a1ad93f75a" d="M3414.62,2207.52l-.24.13c-71.5,39.29-230.29,66.62-414.72,66.62-184,0-342.45-27.2-414.19-66.33-.35-.19-.7-.38-1-.55-8.49-4.08-15,8.29-7,13.24,67.36,41.63,231,71,422.26,71s355.06-29.41,422.36-71.07C3430.22,2215.5,3423.12,2203,3414.62,2207.52Z" transform="translate(-2279.9 -1578.4)"/><path class="ab977af9-7c9e-4977-b9f5-de263c4b7a3a" d="M3441,2226.2c-49.76,49.18-228.48,85.58-441.33,85.58-211.55,0-389.39-36-440.4-84.68a22.53,22.53,0,0,1-6.72-12.92,23.51,23.51,0,0,0-.26,3.39v.29a22.5,22.5,0,0,0,7,16.27c51,48.73,228.85,84.69,440.4,84.69,212.85,0,391.57-36.4,441.33-85.58a22.55,22.55,0,0,0,6.73-16,23.91,23.91,0,0,0-.28-3.53A22.57,22.57,0,0,1,3441,2226.2Z" transform="translate(-2279.9 -1578.4)"/><path class="f64dbf1a-eb02-4c03-8452-0649285e641b" d="M3414.38,2145c-71.5,39.28-230.29,66.61-414.72,66.61-184,0-342.45-27.2-414.19-66.33a22.44,22.44,0,0,0-33.19,19.71v.29a22.5,22.5,0,0,0,7,16.27c51,48.72,228.85,84.69,440.4,84.69,212.85,0,391.57-36.4,441.33-85.58a22.55,22.55,0,0,0,6.73-16h0A22.46,22.46,0,0,0,3414.38,2145Z" transform="translate(-2279.9 -1578.4)"/><path class="f64dbf1a-eb02-4c03-8452-0649285e641b" d="M3438,2146.19a22.38,22.38,0,0,0-23.65-1.18c-71.5,39.28-230.29,66.61-414.72,66.61-184,0-342.45-27.2-414.19-66.33a22.27,22.27,0,0,0-23.66,1.36C2616,2194.18,2791.5,2229,2999.66,2229,3208.5,2229,3384.47,2194,3438,2146.19Z" transform="translate(-2279.9 -1578.4)"/><path class="b5955d43-e67a-45a5-8c90-c2a1ad93f75a" d="M3414.62,2155l-.24.13c-71.5,39.29-230.29,66.62-414.72,66.62-184,0-342.45-27.2-414.19-66.34q-.53-.29-1-.54c-8.49-4.09-15,8.29-7,13.24,67.36,41.63,231,71,422.26,71S3354.72,2209.67,3422,2168C3430.22,2162.93,3423.12,2150.41,3414.62,2155Z" transform="translate(-2279.9 -1578.4)"/><path class="ab977af9-7c9e-4977-b9f5-de263c4b7a3a" d="M3441,2173.63c-49.76,49.18-228.48,85.58-441.33,85.58-211.55,0-389.39-36-440.4-84.68a22.53,22.53,0,0,1-6.72-12.92,23.51,23.51,0,0,0-.26,3.39v.29a22.5,22.5,0,0,0,7,16.27c51,48.72,228.85,84.69,440.4,84.69,212.85,0,391.57-36.4,441.33-85.58a22.55,22.55,0,0,0,6.73-16,23.91,23.91,0,0,0-.28-3.53A22.57,22.57,0,0,1,3441,2173.63Z" transform="translate(-2279.9 -1578.4)"/><path class="f64dbf1a-eb02-4c03-8452-0649285e641b" d="M3414.38,2092.43c-71.5,39.29-230.29,66.62-414.72,66.62-184,0-342.45-27.2-414.19-66.33a22.44,22.44,0,0,0-33.19,19.71v.29a22.5,22.5,0,0,0,7,16.27c51,48.72,228.85,84.69,440.4,84.69,212.85,0,391.57-36.41,441.33-85.58a22.55,22.55,0,0,0,6.73-16h0A22.47,22.47,0,0,0,3414.38,2092.43Z" transform="translate(-2279.9 -1578.4)"/><path class="f64dbf1a-eb02-4c03-8452-0649285e641b" d="M3438,2093.62a22.4,22.4,0,0,0-23.65-1.19c-71.5,39.29-230.29,66.62-414.72,66.62-184,0-342.45-27.2-414.19-66.33a22.27,22.27,0,0,0-23.66,1.35c54.17,47.54,229.69,82.36,437.85,82.36C3208.5,2176.43,3384.47,2141.39,3438,2093.62Z" transform="translate(-2279.9 -1578.4)"/><path class="b5955d43-e67a-45a5-8c90-c2a1ad93f75a" d="M3414.62,2102.38l-.24.13c-71.5,39.29-230.29,66.62-414.72,66.62-184,0-342.45-27.2-414.19-66.34q-.53-.28-1-.54c-8.49-4.09-15,8.29-7,13.24,67.36,41.63,231,71,422.26,71s355.06-29.41,422.36-71.08C3430.22,2110.36,3423.12,2097.83,3414.62,2102.38Z" transform="translate(-2279.9 -1578.4)"/><path class="ab977af9-7c9e-4977-b9f5-de263c4b7a3a" d="M3441,2121.06c-49.76,49.18-228.48,85.58-441.33,85.58-211.55,0-389.39-36-440.4-84.69a22.48,22.48,0,0,1-6.72-12.91,23.51,23.51,0,0,0-.26,3.39v.29a22.5,22.5,0,0,0,7,16.27c51,48.72,228.85,84.69,440.4,84.69,212.85,0,391.57-36.41,441.33-85.58a22.55,22.55,0,0,0,6.73-16,24.16,24.16,0,0,0-.28-3.54A22.6,22.6,0,0,1,3441,2121.06Z" transform="translate(-2279.9 -1578.4)"/><path class="f64dbf1a-eb02-4c03-8452-0649285e641b" d="M3414.38,2039.86c-71.5,39.29-230.29,66.62-414.72,66.62-184,0-342.45-27.2-414.19-66.33a22.44,22.44,0,0,0-33.19,19.71v.28a22.51,22.51,0,0,0,7,16.28c51,48.72,228.85,84.69,440.4,84.69,212.85,0,391.57-36.41,441.33-85.58a22.55,22.55,0,0,0,6.73-16h0A22.47,22.47,0,0,0,3414.38,2039.86Z" transform="translate(-2279.9 -1578.4)"/><path class="f64dbf1a-eb02-4c03-8452-0649285e641b" d="M3438,2041.05a22.38,22.38,0,0,0-23.65-1.19c-71.5,39.29-230.29,66.62-414.72,66.62-184,0-342.45-27.2-414.19-66.33a22.27,22.27,0,0,0-23.66,1.35c54.17,47.54,229.69,82.36,437.85,82.36C3208.5,2123.86,3384.47,2088.82,3438,2041.05Z" transform="translate(-2279.9 -1578.4)"/><path class="b5955d43-e67a-45a5-8c90-c2a1ad93f75a" d="M3414.62,2049.81l-.24.13c-71.5,39.29-230.29,66.62-414.72,66.62-184,0-342.45-27.2-414.19-66.34l-1-.54c-8.49-4.09-15,8.29-7,13.24,67.36,41.63,231,71,422.26,71s355.06-29.41,422.36-71.07C3430.22,2057.79,3423.12,2045.26,3414.62,2049.81Z" transform="translate(-2279.9 -1578.4)"/><path class="ab977af9-7c9e-4977-b9f5-de263c4b7a3a" d="M3441,2068.49c-49.76,49.18-228.48,85.58-441.33,85.58-211.55,0-389.39-36-440.4-84.69a22.48,22.48,0,0,1-6.72-12.91,23.51,23.51,0,0,0-.26,3.39v.28a22.51,22.51,0,0,0,7,16.28c51,48.72,228.85,84.69,440.4,84.69,212.85,0,391.57-36.41,441.33-85.58a22.55,22.55,0,0,0,6.73-16,24.16,24.16,0,0,0-.28-3.54A22.6,22.6,0,0,1,3441,2068.49Z" transform="translate(-2279.9 -1578.4)"/><path class="f64dbf1a-eb02-4c03-8452-0649285e641b" d="M3414.38,1987.29c-71.5,39.29-230.29,66.62-414.72,66.62-184,0-342.45-27.2-414.19-66.34a22.45,22.45,0,0,0-33.19,19.72v.28a22.51,22.51,0,0,0,7,16.28c51,48.72,228.85,84.68,440.4,84.68,212.85,0,391.57-36.4,441.33-85.57a22.55,22.55,0,0,0,6.73-16h0A22.47,22.47,0,0,0,3414.38,1987.29Z" transform="translate(-2279.9 -1578.4)"/><path class="f64dbf1a-eb02-4c03-8452-0649285e641b" d="M3438,1988.48a22.38,22.38,0,0,0-23.65-1.19c-71.5,39.29-230.29,66.62-414.72,66.62-184,0-342.45-27.2-414.19-66.34a22.29,22.29,0,0,0-23.66,1.36c54.17,47.54,229.69,82.36,437.85,82.36C3208.5,2071.29,3384.47,2036.24,3438,1988.48Z" transform="translate(-2279.9 -1578.4)"/><path class="b5955d43-e67a-45a5-8c90-c2a1ad93f75a" d="M3414.62,1997.24l-.24.13c-71.5,39.29-230.29,66.61-414.72,66.61-184,0-342.45-27.19-414.19-66.33l-1-.54c-8.49-4.09-15,8.29-7,13.24,67.36,41.63,231,71,422.26,71S3354.72,2052,3422,2010.29C3430.22,2005.22,3423.12,1992.69,3414.62,1997.24Z" transform="translate(-2279.9 -1578.4)"/><path class="ab977af9-7c9e-4977-b9f5-de263c4b7a3a" d="M3441,2015.92c-49.76,49.18-228.48,85.58-441.33,85.58-211.55,0-389.39-36-440.4-84.69a22.48,22.48,0,0,1-6.72-12.91,23.51,23.51,0,0,0-.26,3.39v.28a22.51,22.51,0,0,0,7,16.28c51,48.72,228.85,84.68,440.4,84.68,212.85,0,391.57-36.4,441.33-85.57a22.55,22.55,0,0,0,6.73-16,24,24,0,0,0-.28-3.54A22.6,22.6,0,0,1,3441,2015.92Z" transform="translate(-2279.9 -1578.4)"/><path class="f64dbf1a-eb02-4c03-8452-0649285e641b" d="M3414.38,1934.72c-71.5,39.29-230.29,66.62-414.72,66.62-184,0-342.45-27.2-414.19-66.34a22.45,22.45,0,0,0-33.19,19.72v.28a22.52,22.52,0,0,0,7,16.28c51,48.72,228.85,84.68,440.4,84.68,212.85,0,391.57-36.4,441.33-85.58a22.51,22.51,0,0,0,6.73-16h0A22.47,22.47,0,0,0,3414.38,1934.72Z" transform="translate(-2279.9 -1578.4)"/><path class="f64dbf1a-eb02-4c03-8452-0649285e641b" d="M3438,1935.91a22.35,22.35,0,0,0-23.65-1.19c-71.5,39.29-230.29,66.62-414.72,66.62-184,0-342.45-27.2-414.19-66.34a22.29,22.29,0,0,0-23.66,1.36c54.17,47.54,229.69,82.36,437.85,82.36C3208.5,2018.72,3384.47,1983.67,3438,1935.91Z" transform="translate(-2279.9 -1578.4)"/><path class="b5955d43-e67a-45a5-8c90-c2a1ad93f75a" d="M3414.62,1944.67l-.24.13c-71.5,39.28-230.29,66.61-414.72,66.61-184,0-342.45-27.19-414.19-66.33l-1-.54c-8.49-4.09-15,8.29-7,13.24,67.36,41.63,231,71,422.26,71s355.06-29.41,422.36-71.07C3430.22,1952.65,3423.12,1940.12,3414.62,1944.67Z" transform="translate(-2279.9 -1578.4)"/><path class="ab977af9-7c9e-4977-b9f5-de263c4b7a3a" d="M3441,1963.35c-49.76,49.18-228.48,85.58-441.33,85.58-211.55,0-389.39-36-440.4-84.69a22.51,22.51,0,0,1-6.72-12.91,23.51,23.51,0,0,0-.26,3.39v.28a22.52,22.52,0,0,0,7,16.28c51,48.72,228.85,84.68,440.4,84.68,212.85,0,391.57-36.4,441.33-85.58a22.51,22.51,0,0,0,6.73-16,24,24,0,0,0-.28-3.54A22.6,22.6,0,0,1,3441,1963.35Z" transform="translate(-2279.9 -1578.4)"/><path class="f64dbf1a-eb02-4c03-8452-0649285e641b" d="M3414.38,1882.15c-71.5,39.29-230.29,66.62-414.72,66.62-184,0-342.45-27.2-414.19-66.34a22.45,22.45,0,0,0-33.19,19.72v.28a22.52,22.52,0,0,0,7,16.28c51,48.72,228.85,84.68,440.4,84.68,212.85,0,391.57-36.4,441.33-85.58a22.51,22.51,0,0,0,6.73-16h0A22.46,22.46,0,0,0,3414.38,1882.15Z" transform="translate(-2279.9 -1578.4)"/><path class="f64dbf1a-eb02-4c03-8452-0649285e641b" d="M3438,1883.34a22.35,22.35,0,0,0-23.65-1.19c-71.5,39.29-230.29,66.62-414.72,66.62-184,0-342.45-27.2-414.19-66.34a22.29,22.29,0,0,0-23.66,1.36c54.17,47.54,229.69,82.35,437.85,82.35C3208.5,1966.14,3384.47,1931.1,3438,1883.34Z" transform="translate(-2279.9 -1578.4)"/><path class="b5955d43-e67a-45a5-8c90-c2a1ad93f75a" d="M3414.62,1892.1l-.24.13c-71.5,39.28-230.29,66.61-414.72,66.61-184,0-342.45-27.19-414.19-66.33l-1-.54c-8.49-4.09-15,8.28-7,13.24,67.36,41.63,231,71,422.26,71s355.06-29.41,422.36-71.07C3430.22,1900.08,3423.12,1887.55,3414.62,1892.1Z" transform="translate(-2279.9 -1578.4)"/><path class="ab977af9-7c9e-4977-b9f5-de263c4b7a3a" d="M3441,1910.78c-49.76,49.17-228.48,85.58-441.33,85.58-211.55,0-389.39-36-440.4-84.69a22.51,22.51,0,0,1-6.72-12.91,23.51,23.51,0,0,0-.26,3.39v.28a22.52,22.52,0,0,0,7,16.28c51,48.72,228.85,84.68,440.4,84.68,212.85,0,391.57-36.4,441.33-85.58a22.51,22.51,0,0,0,6.73-16,24,24,0,0,0-.28-3.54A22.6,22.6,0,0,1,3441,1910.78Z" transform="translate(-2279.9 -1578.4)"/><path class="f64dbf1a-eb02-4c03-8452-0649285e641b" d="M3414.38,1829.58c-71.5,39.29-230.29,66.61-414.72,66.61-184,0-342.45-27.19-414.19-66.33a22.45,22.45,0,0,0-33.19,19.72v.28a22.52,22.52,0,0,0,7,16.28c51,48.72,228.85,84.68,440.4,84.68,212.85,0,391.57-36.4,441.33-85.58a22.52,22.52,0,0,0,6.73-16h0A22.46,22.46,0,0,0,3414.38,1829.58Z" transform="translate(-2279.9 -1578.4)"/><path class="f64dbf1a-eb02-4c03-8452-0649285e641b" d="M3438,1830.76a22.38,22.38,0,0,0-23.65-1.18c-71.5,39.29-230.29,66.61-414.72,66.61-184,0-342.45-27.19-414.19-66.33a22.29,22.29,0,0,0-23.66,1.36c54.17,47.53,229.69,82.35,437.85,82.35C3208.5,1913.57,3384.47,1878.53,3438,1830.76Z" transform="translate(-2279.9 -1578.4)"/><path class="b5955d43-e67a-45a5-8c90-c2a1ad93f75a" d="M3414.62,1839.53l-.24.13c-71.5,39.28-230.29,66.61-414.72,66.61-184,0-342.45-27.2-414.19-66.33q-.53-.29-1-.54c-8.49-4.09-15,8.28-7,13.24,67.36,41.63,231,71,422.26,71s355.06-29.41,422.36-71.07C3430.22,1847.5,3423.12,1835,3414.62,1839.53Z" transform="translate(-2279.9 -1578.4)"/><path class="ab977af9-7c9e-4977-b9f5-de263c4b7a3a" d="M3441,1858.21c-49.76,49.17-228.48,85.58-441.33,85.58-211.55,0-389.39-36-440.4-84.69a22.54,22.54,0,0,1-6.72-12.91,23.4,23.4,0,0,0-.26,3.39v.28a22.52,22.52,0,0,0,7,16.28c51,48.72,228.85,84.68,440.4,84.68,212.85,0,391.57-36.4,441.33-85.58a22.52,22.52,0,0,0,6.73-16,23.94,23.94,0,0,0-.28-3.54A22.6,22.6,0,0,1,3441,1858.21Z" transform="translate(-2279.9 -1578.4)"/><path class="f64dbf1a-eb02-4c03-8452-0649285e641b" d="M3414.38,1777c-71.5,39.28-230.29,66.61-414.72,66.61-184,0-342.45-27.19-414.19-66.33a22.45,22.45,0,0,0-33.19,19.72v.28a22.5,22.5,0,0,0,7,16.27c51,48.73,228.85,84.69,440.4,84.69,212.85,0,391.57-36.4,441.33-85.58a22.55,22.55,0,0,0,6.73-16h0A22.46,22.46,0,0,0,3414.38,1777Z" transform="translate(-2279.9 -1578.4)"/><path class="f64dbf1a-eb02-4c03-8452-0649285e641b" d="M3438,1778.19a22.38,22.38,0,0,0-23.65-1.18c-71.5,39.28-230.29,66.61-414.72,66.61-184,0-342.45-27.19-414.19-66.33a22.27,22.27,0,0,0-23.66,1.36C2616,1826.18,2791.5,1861,2999.66,1861,3208.5,1861,3384.47,1826,3438,1778.19Z" transform="translate(-2279.9 -1578.4)"/><path class="b5955d43-e67a-45a5-8c90-c2a1ad93f75a" d="M3414.62,1787l-.24.14c-71.5,39.28-230.29,66.61-414.72,66.61-184,0-342.45-27.2-414.19-66.33l-1-.54c-8.49-4.09-15,8.28-7,13.23,67.36,41.64,231,71,422.26,71S3354.72,1841.67,3422,1800C3430.22,1794.93,3423.12,1782.41,3414.62,1787Z" transform="translate(-2279.9 -1578.4)"/><path class="ab977af9-7c9e-4977-b9f5-de263c4b7a3a" d="M3441,1805.64c-49.76,49.17-228.48,85.57-441.33,85.57-211.55,0-389.39-36-440.4-84.68a22.53,22.53,0,0,1-6.72-12.92,23.54,23.54,0,0,0-.26,3.4v.28a22.5,22.5,0,0,0,7,16.27c51,48.73,228.85,84.69,440.4,84.69,212.85,0,391.57-36.4,441.33-85.58a22.55,22.55,0,0,0,6.73-16,23.91,23.91,0,0,0-.28-3.53A22.63,22.63,0,0,1,3441,1805.64Z" transform="translate(-2279.9 -1578.4)"/><path class="b69c7123-8c7a-4be7-b301-982b0d29893e" d="M3595,1785.59c-129.67-47.29-347.78-78.33-595-78.33s-465.34,31-595,78.33l-125.09-27.8v128.86c0,99.08,322.4,179.4,720.1,179.4s720.1-80.32,720.1-179.4V1757.79Z" transform="translate(-2279.9 -1578.4)"/><ellipse class="fae965ab-82e6-4edb-937c-2784a31d8fa1" cx="720.1" cy="179.39" rx="720.1" ry="179.39"/><path class="a1e473bb-4fe9-4c81-9877-f7ae64e1e7c8" d="M3128.46,1581.25c128.35,32.39,207.59,76.9,207.59,126,0,99.08-322.4,179.39-720.1,179.39-43.85,0-86.78-1-128.46-2.84,130.57,33,312,53.38,512.51,53.38,397.7,0,720.1-80.32,720.1-179.4C3720.1,1669.64,3464.87,1596.34,3128.46,1581.25Z" transform="translate(-2279.9 -1578.4)"/><path class="b233ce58-4c5e-4fb2-8d70-b38cc277694e" d="M3000,1927.08c-390.92,0-709.07-77.6-719.81-174.34a44.86,44.86,0,0,0-.29,5c0,99.08,322.4,179.4,720.1,179.4s720.1-80.32,720.1-179.4a44.86,44.86,0,0,0-.29-5C3709.07,1849.48,3390.92,1927.08,3000,1927.08Z" transform="translate(-2279.9 -1578.4)"/><ellipse class="fa003c84-3f4b-4080-923a-78cd8a741b98" cx="720.1" cy="161.23" rx="129.96" ry="32.38"/></svg>