<svg id="f5f09351-d6c1-4f1e-adac-e6287e5875a3" data-name="Layer 1" xmlns="http://www.w3.org/2000/svg" xmlns:xlink="http://www.w3.org/1999/xlink" viewBox="0 0 430.31 506"><defs><style>.e0cb7a1d-2a14-4dbc-9f33-2b618b4055b2{fill:none;}.ac77fea3-71a1-49c0-bc06-762f6a67618f,.e0cb7a1d-2a14-4dbc-9f33-2b618b4055b2{stroke:#000;stroke-miterlimit:10;}.a872ccd5-96f9-4a4a-be06-1bc182104f9c{clip-path:url(#a27abe33-d379-4e70-b0a0-c27651ef7bfc);}.e00cc873-4b82-4a7b-add2-01af4d63da7c{clip-path:url(#b6d65aad-be7c-4498-adf3-d44f1dadc6c1);}.ac77fea3-71a1-49c0-bc06-762f6a67618f{fill:#fff;}.e0c5bf1d-63d3-4255-815c-2f9eed2f4372{clip-path:url(#f61a188e-5b45-45cb-8ee5-e1b8643547bc);}.b68a90b4-63ee-4403-9291-52baf30b9861{clip-path:url(#b48167f8-8da3-4e7e-a209-fd085bfb68ad);}</style><clipPath id="a27abe33-d379-4e70-b0a0-c27651ef7bfc" transform="translate(54 94)"><path class="e0cb7a1d-2a14-4dbc-9f33-2b618b4055b2" d="M172.14,148.39S145.25,175.28,118.35,247c0,0-61-88.12-76.92-122.91a25.42,25.42,0,0,1-.36-20L73.53,22.88s3.13,21.7,23.93,52.35C112,96.66,135.2,122.57,172.14,148.39Z"/></clipPath><clipPath id="b6d65aad-be7c-4498-adf3-d44f1dadc6c1" transform="translate(54 94)"><path class="e0cb7a1d-2a14-4dbc-9f33-2b618b4055b2" d="M302.85,124.09C287,158.88,225.93,247,225.93,247c-26.9-71.72-53.79-98.61-53.79-98.61,36.93-25.82,60.15-51.73,74.68-73.16,20.79-30.65,23.93-52.35,23.93-52.35L303.2,104.1A25.42,25.42,0,0,1,302.85,124.09Z"/></clipPath><clipPath id="f61a188e-5b45-45cb-8ee5-e1b8643547bc" transform="translate(54 94)"><path class="e0cb7a1d-2a14-4dbc-9f33-2b618b4055b2" d="M270.75,22.88s-3.14,21.7-23.93,52.35c-59.71-28.32-149.36,0-149.36,0C76.66,44.58,73.53,22.88,73.53,22.88S172.14-21.94,270.75,22.88Z"/></clipPath><clipPath id="b48167f8-8da3-4e7e-a209-fd085bfb68ad" transform="translate(54 94)"><path class="e0cb7a1d-2a14-4dbc-9f33-2b618b4055b2" d="M172.5,148.5s-16,17-23.29,32.28c0,0,24.43,10.28,45.86,0C195.07,180.78,182.5,159.5,172.5,148.5Z"/></clipPath><image id="a4d6398b-8cdd-4710-8a6b-01aee77b904a" width="768" height="1024" xlink:href="../../fab.jpg"/></defs><title>CollarDesign6</title><g class="a872ccd5-96f9-4a4a-be06-1bc182104f9c"><use transform="translate(0 24) scale(0.43)" xlink:href="#a4d6398b-8cdd-4710-8a6b-01aee77b904a"/></g><path class="e0cb7a1d-2a14-4dbc-9f33-2b618b4055b2" d="M172.14,148.39S145.25,175.28,118.35,247c0,0-61-88.12-76.92-122.91a25.42,25.42,0,0,1-.36-20L73.53,22.88s3.13,21.7,23.93,52.35C112,96.66,135.2,122.57,172.14,148.39Z" transform="translate(54 94)"/><g class="e00cc873-4b82-4a7b-add2-01af4d63da7c"><use transform="translate(48 -70) scale(0.43)" xlink:href="#a4d6398b-8cdd-4710-8a6b-01aee77b904a"/></g><path class="e0cb7a1d-2a14-4dbc-9f33-2b618b4055b2" d="M302.85,124.09C287,158.88,225.93,247,225.93,247c-26.9-71.72-53.79-98.61-53.79-98.61,36.93-25.82,60.15-51.73,74.68-73.16,20.79-30.65,23.93-52.35,23.93-52.35L303.2,104.1A25.42,25.42,0,0,1,302.85,124.09Z" transform="translate(54 94)"/><path class="e0cb7a1d-2a14-4dbc-9f33-2b618b4055b2" d="M270.75,22.88" transform="translate(54 94)"/><path class="e0cb7a1d-2a14-4dbc-9f33-2b618b4055b2" d="M64.56,22.88" transform="translate(54 94)"/><path class="e0cb7a1d-2a14-4dbc-9f33-2b618b4055b2" d="M249.17,71.73" transform="translate(54 94)"/><path class="e0cb7a1d-2a14-4dbc-9f33-2b618b4055b2" d="M86.14,71.73" transform="translate(54 94)"/><path class="ac77fea3-71a1-49c0-bc06-762f6a67618f" d="M246.82,75.23c-14.53,21.43-37.75,47.34-74.68,73.16C135.2,122.57,112,96.66,97.46,75.23,97.46,75.23,187.11,46.91,246.82,75.23Z" transform="translate(54 94)"/><g class="e0c5bf1d-63d3-4255-815c-2f9eed2f4372"><use transform="translate(11 -94) scale(0.43)" xlink:href="#a4d6398b-8cdd-4710-8a6b-01aee77b904a"/></g><path class="e0cb7a1d-2a14-4dbc-9f33-2b618b4055b2" d="M270.75,22.88s-3.14,21.7-23.93,52.35c-59.71-28.32-149.36,0-149.36,0C76.66,44.58,73.53,22.88,73.53,22.88S172.14-21.94,270.75,22.88Z" transform="translate(54 94)"/><circle class="ac77fea3-71a1-49c0-bc06-762f6a67618f" cx="169.38" cy="298.25" r="8.25"/><circle class="ac77fea3-71a1-49c0-bc06-762f6a67618f" cx="284.25" cy="298.25" r="8.25"/><g class="b68a90b4-63ee-4403-9291-52baf30b9861"><image width="768" height="1024" transform="translate(54 17) scale(0.48)" xlink:href="../../../../ClickModel/Images/fab.jpg"/></g><path class="e0cb7a1d-2a14-4dbc-9f33-2b618b4055b2" d="M172.5,148.5s-16,17-23.29,32.28c0,0,24.43,10.28,45.86,0C195.07,180.78,182.5,159.5,172.5,148.5Z" transform="translate(54 94)"/><circle class="ac77fea3-71a1-49c0-bc06-762f6a67618f" cx="226.39" cy="264.47" r="7.11"/></svg>