<svg id="bd089640-17ad-4399-8c55-f4150111a77f" data-name="Layer 1" xmlns="http://www.w3.org/2000/svg" xmlns:xlink="http://www.w3.org/1999/xlink" viewBox="0 0 395.75 424.66"><defs><style>.b02cbf03-1ee5-4eae-8b74-2967292a7c21{fill:none;}.b02cbf03-1ee5-4eae-8b74-2967292a7c21,.e8389ee3-a3bc-4d71-86c3-cd436b9950f7{stroke:#000;stroke-miterlimit:10;}.fa6fe31a-c7b3-4e4a-ac1f-9d6764761ba6{clip-path:url(#af946260-0f0e-43ed-aaf6-f88da716ecb8);}.ef88bd33-4f1f-4246-a848-208dfd783ad6{clip-path:url(#af087bba-5a2c-4940-a244-67ad2c204fb5);}.e8389ee3-a3bc-4d71-86c3-cd436b9950f7{fill:#fff;}.bec8a525-98a1-4701-b348-682e4edd830c{clip-path:url(#ac2125a5-2afd-4688-8cda-0ba6a1f01c10);}</style><clipPath id="af946260-0f0e-43ed-aaf6-f88da716ecb8" transform="translate(33.29 76.17)"><path class="b02cbf03-1ee5-4eae-8b74-2967292a7c21" d="M174.69,146.75S150,171.48,125.22,237.44c0,0-56.15-81-70.74-113A23.35,23.35,0,0,1,54.15,106L84,31.32s2.88,20,22,48.15C119.37,99.18,140.72,123,174.69,146.75Z"/></clipPath><clipPath id="af087bba-5a2c-4940-a244-67ad2c204fb5" transform="translate(33.29 76.17)"><path class="b02cbf03-1ee5-4eae-8b74-2967292a7c21" d="M294.9,124.41c-14.59,32-70.74,113-70.74,113-24.74-66-49.47-90.69-49.47-90.69,34-23.75,55.32-47.57,68.68-67.28,19.13-28.2,22-48.15,22-48.15L295.23,106A23.35,23.35,0,0,1,294.9,124.41Z"/></clipPath><clipPath id="ac2125a5-2afd-4688-8cda-0ba6a1f01c10" transform="translate(33.29 76.17)"><path class="b02cbf03-1ee5-4eae-8b74-2967292a7c21" d="M265.38,31.32s-2.88,20-22,48.15c-54.91-26-137.36,0-137.36,0C86.88,51.27,84,31.32,84,31.32S174.69-9.9,265.38,31.32Z"/></clipPath><image id="fc2398bf-74b7-4cb6-ace3-5de51025f283" width="768" height="1024" xlink:href="../../fab.jpg"/></defs><title>CollarDesign8</title><g class="fa6fe31a-c7b3-4e4a-ac1f-9d6764761ba6"><use transform="translate(0 22.07) scale(0.39)" xlink:href="#fc2398bf-74b7-4cb6-ace3-5de51025f283"/></g><path class="b02cbf03-1ee5-4eae-8b74-2967292a7c21" d="M174.69,146.75S150,171.48,125.22,237.44c0,0-56.15-81-70.74-113A23.35,23.35,0,0,1,54.15,106L84,31.32s2.88,20,22,48.15C119.37,99.18,140.72,123,174.69,146.75Z" transform="translate(33.29 76.17)"/><g class="ef88bd33-4f1f-4246-a848-208dfd783ad6"><use transform="translate(60.52 -54.1) scale(0.39)" xlink:href="#fc2398bf-74b7-4cb6-ace3-5de51025f283"/></g><path class="b02cbf03-1ee5-4eae-8b74-2967292a7c21" d="M294.9,124.41c-14.59,32-70.74,113-70.74,113-24.74-66-49.47-90.69-49.47-90.69,34-23.75,55.32-47.57,68.68-67.28,19.13-28.2,22-48.15,22-48.15L295.23,106A23.35,23.35,0,0,1,294.9,124.41Z" transform="translate(33.29 76.17)"/><path class="b02cbf03-1ee5-4eae-8b74-2967292a7c21" d="M265.38,31.32" transform="translate(33.29 76.17)"/><path class="b02cbf03-1ee5-4eae-8b74-2967292a7c21" d="M75.75,31.32" transform="translate(33.29 76.17)"/><path class="b02cbf03-1ee5-4eae-8b74-2967292a7c21" d="M245.54,76.25" transform="translate(33.29 76.17)"/><path class="b02cbf03-1ee5-4eae-8b74-2967292a7c21" d="M95.59,76.25" transform="translate(33.29 76.17)"/><path class="e8389ee3-a3bc-4d71-86c3-cd436b9950f7" d="M243.37,79.47C230,99.18,208.66,123,174.69,146.75,140.72,123,119.37,99.18,106,79.47,106,79.47,188.46,53.42,243.37,79.47Z" transform="translate(33.29 76.17)"/><g class="bec8a525-98a1-4701-b348-682e4edd830c"><use transform="translate(26.49 -76.17) scale(0.39)" xlink:href="#fc2398bf-74b7-4cb6-ace3-5de51025f283"/></g><path class="b02cbf03-1ee5-4eae-8b74-2967292a7c21" d="M265.38,31.32s-2.88,20-22,48.15c-54.91-26-137.36,0-137.36,0C86.88,51.27,84,31.32,84,31.32S174.69-9.9,265.38,31.32Z" transform="translate(33.29 76.17)"/></svg>