<svg id="e666d7ba-99a6-4c94-9296-56b9d482ef34" data-name="Layer 2" xmlns="http://www.w3.org/2000/svg" xmlns:xlink="http://www.w3.org/1999/xlink" viewBox="0 0 412.62 434.15"><defs><style>.ea75a9c3-49f9-4d80-97b8-9edcb72151a7{fill:none;}.aba77b1d-8962-46a0-9926-1db80cc1dd61,.e95c470d-6205-415b-9ee0-b5650dd6a47f,.ea75a9c3-49f9-4d80-97b8-9edcb72151a7{stroke:#000;stroke-miterlimit:10;}.bd9c2eb1-a6a9-44fa-96ba-bc61120b9766{clip-path:url(#efc469e7-7488-4764-88be-63f265411e4d);}.b38cdf43-a059-4d4f-9190-007690ca0d64{clip-path:url(#a0f773f0-0ef0-4260-8a70-7a568e0b3313);}.e95c470d-6205-415b-9ee0-b5650dd6a47f{fill:#fff;}.a35e3944-6750-45e2-8bd0-cdf21899233c{clip-path:url(#b348c8a1-530e-4dca-a571-1430c82a243a);}.a18a0bd8-8def-4a1f-96cd-ed7f1c591dc2{clip-path:url(#a3e1d79d-c407-4586-aa53-96f9c181bc21);}</style><clipPath id="efc469e7-7488-4764-88be-63f265411e4d" transform="translate(25 72)"><path class="ea75a9c3-49f9-4d80-97b8-9edcb72151a7" d="M245.5,83.5s-1.95,1.26-5.33,3.24c-69.33-27.77-135.78,0-135.78,0-5-2.65-8.76-4.88-9.89-6.24,0,0-9.11-5.36-7.33-12.94.69-1.52,1.25-2.75,1.65-3.61v0A22.51,22.51,0,0,1,94.5,58.5s80-31,151,0c0,0,6.48,3.1,9.12,8.1h0C257,71,256.29,76.94,245.5,83.5Z"/></clipPath><clipPath id="a0f773f0-0ef0-4260-8a70-7a568e0b3313" transform="translate(25 72)"><path class="ea75a9c3-49f9-4d80-97b8-9edcb72151a7" d="M157.92,110.28c-3.87,9.56-20.4,26.19-30.15,35.48-4.29,4.08-7.27,6.74-7.27,6.74-51,22-57-18-57-18,.81-15.42,17.44-53.25,23.67-66.94C85.39,75.14,94.5,80.5,94.5,80.5c1.13,1.36,4.84,3.59,9.89,6.24,17.22,9,50.11,22.76,50.11,22.76Q156.26,109.94,157.92,110.28Z"/></clipPath><clipPath id="b348c8a1-530e-4dca-a571-1430c82a243a" transform="translate(25 72)"><path class="ea75a9c3-49f9-4d80-97b8-9edcb72151a7" d="M277.5,126.5c-3,47-56,29-56,29-3.95-1.73-8.51-5.32-13.13-9.74-14.06-13.48-28.71-34.7-28.71-34.7a25.89,25.89,0,0,0,5.84-1.56c21.73-4.5,44.58-16.85,54.67-22.76,3.38-2,5.33-3.24,5.33-3.24C256.29,76.94,257,71,254.62,66.61,263.84,74.53,277.5,126.5,277.5,126.5Z"/></clipPath><clipPath id="a3e1d79d-c407-4586-aa53-96f9c181bc21" transform="translate(25 72)"><path class="ea75a9c3-49f9-4d80-97b8-9edcb72151a7" d="M208.37,145.76c-35.13,11.25-80.6,0-80.6,0,9.75-9.29,26.28-25.92,30.15-35.48a58.9,58.9,0,0,0,21.74.78S194.31,132.28,208.37,145.76Z"/></clipPath><image id="be7504b1-2f10-4345-89d1-2da315019d20" width="768" height="1024" xlink:href="../../../../ClickModel/Images/fab.jpg"/></defs><title>CollarDesign3</title><g class="bd9c2eb1-a6a9-44fa-96ba-bc61120b9766"><use transform="translate(61 3) scale(0.4)" xlink:href="#be7504b1-2f10-4345-89d1-2da315019d20"/></g><path class="ea75a9c3-49f9-4d80-97b8-9edcb72151a7" d="M245.5,83.5s-1.95,1.26-5.33,3.24c-69.33-27.77-135.78,0-135.78,0-5-2.65-8.76-4.88-9.89-6.24,0,0-9.11-5.36-7.33-12.94.69-1.52,1.25-2.75,1.65-3.61v0A22.51,22.51,0,0,1,94.5,58.5s80-31,151,0c0,0,6.48,3.1,9.12,8.1h0C257,71,256.29,76.94,245.5,83.5Z" transform="translate(25 72)"/><path class="ea75a9c3-49f9-4d80-97b8-9edcb72151a7" d="M87.17,67.56A11.06,11.06,0,0,1,88.82,64C88.42,64.81,87.86,66,87.17,67.56Z" transform="translate(25 72)"/><g class="b38cdf43-a059-4d4f-9190-007690ca0d64"><use transform="translate(-25 -44) scale(0.4)" xlink:href="#be7504b1-2f10-4345-89d1-2da315019d20"/></g><path class="ea75a9c3-49f9-4d80-97b8-9edcb72151a7" d="M157.92,110.28c-3.87,9.56-20.4,26.19-30.15,35.48-4.29,4.08-7.27,6.74-7.27,6.74-51,22-57-18-57-18,.81-15.42,17.44-53.25,23.67-66.94C85.39,75.14,94.5,80.5,94.5,80.5c1.13,1.36,4.84,3.59,9.89,6.24,17.22,9,50.11,22.76,50.11,22.76Q156.26,109.94,157.92,110.28Z" transform="translate(25 72)"/><path class="ea75a9c3-49f9-4d80-97b8-9edcb72151a7" d="M89.5,62.5s-.24.5-.67,1.43" transform="translate(25 72)"/><path class="e95c470d-6205-415b-9ee0-b5650dd6a47f" d="M240.17,86.74C230.08,92.65,207.23,105,185.5,109.5a25.89,25.89,0,0,1-5.84,1.56,58.9,58.9,0,0,1-21.74-.78q-1.66-.34-3.42-.78s-32.89-13.75-50.11-22.76C104.39,86.74,170.84,59,240.17,86.74Z" transform="translate(25 72)"/><g class="a35e3944-6750-45e2-8bd0-cdf21899233c"><use transform="translate(83 -72) scale(0.4)" xlink:href="#be7504b1-2f10-4345-89d1-2da315019d20"/></g><path class="ea75a9c3-49f9-4d80-97b8-9edcb72151a7" d="M277.5,126.5c-3,47-56,29-56,29-3.95-1.73-8.51-5.32-13.13-9.74-14.06-13.48-28.71-34.7-28.71-34.7a25.89,25.89,0,0,0,5.84-1.56c21.73-4.5,44.58-16.85,54.67-22.76,3.38-2,5.33-3.24,5.33-3.24C256.29,76.94,257,71,254.62,66.61,263.84,74.53,277.5,126.5,277.5,126.5Z" transform="translate(25 72)"/><path class="ea75a9c3-49f9-4d80-97b8-9edcb72151a7" d="M254.5,66.5l.12.1h0" transform="translate(25 72)"/><g class="a18a0bd8-8def-4a1f-96cd-ed7f1c591dc2"><use transform="translate(23 -65) scale(0.4)" xlink:href="#be7504b1-2f10-4345-89d1-2da315019d20"/></g><path class="ea75a9c3-49f9-4d80-97b8-9edcb72151a7" d="M208.37,145.76c-35.13,11.25-80.6,0-80.6,0,9.75-9.29,26.28-25.92,30.15-35.48a58.9,58.9,0,0,0,21.74.78S194.31,132.28,208.37,145.76Z" transform="translate(25 72)"/><circle class="aba77b1d-8962-46a0-9926-1db80cc1dd61" cx="196.5" cy="202.5" r="6"/></svg>