<?xml version="1.0" encoding="utf-8"?>
<!-- Generator: Adobe Illustrator 23.0.6, SVG Export Plug-In . SVG Version: 6.00 Build 0)  -->
<svg version="1.1" id="Layer_2" xmlns="http://www.w3.org/2000/svg" xmlns:xlink="http://www.w3.org/1999/xlink" x="0px" y="0px"
	 viewBox="0 0 120.8 140.4" style="enable-background:new 0 0 120.8 140.4;" xml:space="preserve">
<style type="text/css">
	.st0{fill:none;stroke:#000000;stroke-miterlimit:10;}
</style>
<g>
	<defs>
		<path id="SVGID_1_" d="M57.2,79.8c-1.8,0.9-3.4,3.8-4.8,7c0,0,0,0,0,0c-5.4,11.1-10.1,30.1-10.1,30.1C34.6,114.6,17,90.2,17,90.2
			c-2.1-20.6,5.9-30.5,5.9-30.5c3.6,3.7,7.4,6.8,11,9.4C46,77.4,57.2,79.8,57.2,79.8z"/>
	</defs>
	<clipPath id="SVGID_2_">
		<use xlink:href="#SVGID_1_"  style="overflow:visible;"/>
	</clipPath>
	<g style="clip-path:url(#SVGID_2_);">
		
			<image style="overflow:visible;" width="768" height="1024" xlink:href="../../fab.jpg"  transform="matrix(0.2146 0 0 0.2146 -9.8117 -20.8906)">
		</image>
	</g>
	<use xlink:href="#SVGID_1_"  style="overflow:visible;fill:none;stroke:#000000;stroke-miterlimit:10;"/>
</g>
<path class="st0" d="M57.2,79.8c-1.6,1.2-3.2,3.8-4.8,7C53.8,83.6,55.5,80.7,57.2,79.8z"/>
<g>
	<defs>
		<path id="SVGID_3_" d="M112.8,90.9c0,0-17.6,24.4-25.2,26.7c0,0-2.8-11.3-6.6-21.6c0,0,0,0,0,0c-0.3-1.3-1-3-1.8-4.6
			c0,0,0,0,0-0.1c-2.1-4.9-4.3-9.1-6.5-10.8c0,0,11.8-2.5,24.2-11.4c3.4-2.4,6.8-5.3,10-8.7C106.9,60.4,114.9,70.3,112.8,90.9z"/>
	</defs>
	<clipPath id="SVGID_4_">
		<use xlink:href="#SVGID_3_"  style="overflow:visible;"/>
	</clipPath>
	<g style="clip-path:url(#SVGID_4_);">
		
			<image style="overflow:visible;" width="768" height="1024" xlink:href="../../fab.jpg"  transform="matrix(0.2146 0 0 0.2146 -17.4217 -15.2033)">
		</image>
	</g>
	<use xlink:href="#SVGID_3_"  style="overflow:visible;fill:none;stroke:#000000;stroke-miterlimit:10;"/>
</g>
<path class="st0" d="M80.9,95.9c-0.6-1.6-1.2-3.2-1.8-4.6C79.9,93,80.6,94.6,80.9,95.9z"/>
<path class="st0" d="M81,98.3c0,0-18.9,6.3-32.1-1.2c0,0,1.4-5.5,3.5-10.3c0,0,0,0,0,0c1.6-3.2,3.2-5.8,4.8-7c0,0,7.3,3,15.4,0.7
	c0,0,4,5.7,6.5,10.8c0,0,0,0,0,0.1c0.6,1.5,1.2,3,1.8,4.6c0,0,0,0,0,0C81.2,96.9,81.2,97.7,81,98.3z"/>
<path class="st0" d="M57.2,79.8c-1.6,1.2-3.2,3.8-4.8,7C53.8,83.6,55.5,80.7,57.2,79.8z"/>
<path class="st0" d="M80.9,95.9c-0.6-1.6-1.2-3.2-1.8-4.6C79.9,93,80.6,94.6,80.9,95.9z"/>
<path class="st0" d="M96.8,69.1C84.4,78,72.6,80.5,72.6,80.5c-8.1,2.3-15.4-0.7-15.4-0.7S46,77.4,34,69.1
	C34,69.1,65.6,53.8,96.8,69.1z"/>
<g>
	<defs>
		<path id="SVGID_5_" d="M106.9,60.4c-3.3,3.4-6.7,6.3-10,8.7c-31.2-15.3-62.9,0-62.9,0c-3.7-2.5-7.5-5.6-11-9.4
			C22.9,59.7,68,33.4,106.9,60.4z"/>
	</defs>
	<clipPath id="SVGID_6_">
		<use xlink:href="#SVGID_5_"  style="overflow:visible;"/>
	</clipPath>
	<g style="clip-path:url(#SVGID_6_);">
		
			<image style="overflow:visible;" width="768" height="1024" xlink:href="../../fab.jpg"  transform="matrix(0.2146 0 0 0.2146 -17.4217 -15.2033)">
		</image>
	</g>
	<use xlink:href="#SVGID_5_"  style="overflow:visible;fill:none;stroke:#000000;stroke-miterlimit:10;"/>
</g>
<path class="st0" d="M61.2,81.3c0,0-3.4,12.2,0,19.5"/>
<circle class="st0" cx="65.6" cy="91.9" r="2.2"/>
</svg>
