<svg id="fdf5cc91-66ae-4db3-b35c-73e24288f3d3" data-name="Layer 1" xmlns="http://www.w3.org/2000/svg" xmlns:xlink="http://www.w3.org/1999/xlink" viewBox="0 0 768 1024"><defs><style>.a1d1eefc-27eb-4f86-bf1d-0c6078eaeb98{fill:none;}.a1d1eefc-27eb-4f86-bf1d-0c6078eaeb98,.b1d85aad-2299-46da-8ae8-f462295bff27,.edc9da59-e4a6-4cde-9ed0-2170a64c350c{stroke:#000;stroke-miterlimit:10;}.b1d85aad-2299-46da-8ae8-f462295bff27{fill:#fcfcfc;}.bac42b07-cd4a-430d-8b6e-952d165840a8{clip-path:url(#b4f5fda2-417a-4d95-92fd-704b9281c52f);}.edc9da59-e4a6-4cde-9ed0-2170a64c350c{fill:#fff;}</style><clipPath id="b4f5fda2-417a-4d95-92fd-704b9281c52f" transform="translate(335.18 376.15)"><path class="a1d1eefc-27eb-4f86-bf1d-0c6078eaeb98" d="M297.35,106.63l-49.67,49.66H198s-25.92,0-33.21,24A1071.09,1071.09,0,0,0,8.07,199.65V33.19A526.23,526.23,0,0,1,163.69,6.41l1.2,17.43S164.89,57,198,57h49.67Z"/></clipPath></defs><title>CuffDesign11</title><path class="b1d85aad-2299-46da-8ae8-f462295bff27" d="M341,33.19V199.65c-50.29-18.86-116.26-22.05-176.2-19.33,7.29-24,33.21-24,33.21-24h49.67l49.67-49.66L247.68,57H198c-33.12,0-33.12-33.12-33.12-33.12l-1.2-17.43C268.52,4.2,341,33.19,341,33.19Z" transform="translate(335.18 376.15)"/><g class="bac42b07-cd4a-430d-8b6e-952d165840a8"><image width="768" height="1024" xlink:href="../../../../ClickModel/Images/fab.jpg"/></g><path class="a1d1eefc-27eb-4f86-bf1d-0c6078eaeb98" d="M297.35,106.63l-49.67,49.66H198s-25.92,0-33.21,24A1071.09,1071.09,0,0,0,8.07,199.65V33.19A526.23,526.23,0,0,1,163.69,6.41l1.2,17.43S164.89,57,198,57h49.67Z" transform="translate(335.18 376.15)"/><circle class="edc9da59-e4a6-4cde-9ed0-2170a64c350c" cx="566.68" cy="478.44" r="22.7"/><path class="a1d1eefc-27eb-4f86-bf1d-0c6078eaeb98" d="M8.5,199.5s151,56,332,0" transform="translate(335.18 376.15)"/></svg>