<svg id="b5b624c8-d373-49b7-b98d-3cc5f15ab1e8" data-name="CuffLayer" xmlns="http://www.w3.org/2000/svg" xmlns:xlink="http://www.w3.org/1999/xlink" viewBox="0 0 768 1024"><defs><style>.efd713eb-16e9-4123-a7d5-12fc1ef2d2dc,.f2254a16-18b0-454a-9f33-2f2a8295e37d{fill:none;}.efd713eb-16e9-4123-a7d5-12fc1ef2d2dc,.f2254a16-18b0-454a-9f33-2f2a8295e37d,.fad26217-462c-4528-b45c-6618f46b7cb5{stroke:#000;stroke-miterlimit:10;}.affea279-67e4-4b50-b547-a0f4d35933fd{clip-path:url(#eb2fc315-cecd-4aff-9332-c03307d3ed33);}.efd713eb-16e9-4123-a7d5-12fc1ef2d2dc{stroke-width:2px;}.fad26217-462c-4528-b45c-6618f46b7cb5{fill:#fff;}</style><clipPath id="eb2fc315-cecd-4aff-9332-c03307d3ed33" transform="translate(235.49 408.97)"><path id="f102ef6b-7475-4f63-8d2f-e455a0bbc50c" data-name="MainClippedStroke-3" class="f2254a16-18b0-454a-9f33-2f2a8295e37d" d="M2.8,204.75s217.76-46.67,342.2,0V33.65s-155.55-62.22-342.2,0Z"/></clipPath></defs><title>CuffDesign3</title><g id="b7f3529b-aab6-4ad8-9089-f070f29a9388" data-name="MainClippedGroup-3"><g id="ef8782e4-f1f4-4d86-8ff7-d035102898a4" data-name="MainClipGroup3"><g class="affea279-67e4-4b50-b547-a0f4d35933fd"><image id="ba5c3812-f5c1-4e86-b4b7-d1261c0da59c" data-name="MainClippedCuffImag-3" width="768" height="1024" transform="translate(0 0)" xlink:href="../../fab.jpg"/></g><path id="fed28030-304c-4021-b77e-63c96d110116" data-name="MainClippedStroke-3" class="f2254a16-18b0-454a-9f33-2f2a8295e37d" d="M2.8,204.75s217.76-46.67,342.2,0V33.65s-155.55-62.22-342.2,0Z" transform="translate(235.49 408.97)"/></g></g><g id="ad99659b-ea64-406b-ba7f-6f4110f58b58" data-name="MidOutline"><path class="efd713eb-16e9-4123-a7d5-12fc1ef2d2dc" d="M154.18,185.38s66.38,3.81,66.38-42.85V6.86" transform="translate(235.49 408.97)"/></g><g id="b06c56b2-e04b-4cc9-876e-7277c95124ad" data-name="Btns2Group"><circle class="fad26217-462c-4528-b45c-6618f46b7cb5" cx="386.95" cy="465.95" r="23.33"/><circle class="fad26217-462c-4528-b45c-6618f46b7cb5" cx="386.95" cy="544.62" r="23.33"/></g><g id="f7d15d58-e9aa-406d-8c28-c91ec0ddfc1e" data-name="bottomOutline"><path class="f2254a16-18b0-454a-9f33-2f2a8295e37d" d="M2.5,204.5s-3,7,14,11c0,0,189,29,305,0,0,0,19-5,24-11" transform="translate(235.49 408.97)"/></g></svg>