<svg id="aea05623-c211-440d-8624-73e851bcae00" data-name="CuffDesign1" xmlns="http://www.w3.org/2000/svg" xmlns:xlink="http://www.w3.org/1999/xlink" viewBox="0 0 336.5 447.38"><defs><style>.feb505a5-375f-4606-8953-973e2071323a{fill:none;}.a7fddaa6-74f3-4d26-af5e-52980c988773,.feb505a5-375f-4606-8953-973e2071323a{stroke:#000;stroke-miterlimit:10;}.b4f72fba-4b45-41cc-828f-f58d3fbfb234{clip-path:url(#b33d2545-6eba-422f-af00-969b1f8338f1);}.a7fddaa6-74f3-4d26-af5e-52980c988773{fill:#fff;}</style><clipPath id="b33d2545-6eba-422f-af00-969b1f8338f1" transform="translate(-7 22)"><path id="a480e556-65f8-4a98-984c-b4deca352961" data-name="CuffMainAreaStroke" class="feb505a5-375f-4606-8953-973e2071323a" d="M296.11,110.45s-109.42-78.16-281.37,0V266.76s140.68-78.16,281.37,0c0,0,31.26,15.63,46.89,0V110.45S327.37,126.08,296.11,110.45Zm-15.64,101.6a23.45,23.45,0,1,1,23.45-23.45A23.41,23.41,0,0,1,280.47,212.05Z"/></clipPath></defs><title>CuffDesign1</title><g id="f34bfa98-9f17-40ad-bfd5-0a7e8c3cbafe" data-name="CuffMainArea"><g class="b4f72fba-4b45-41cc-828f-f58d3fbfb234"><image id="a049e19a-8568-4857-a826-6267cf78088c" data-name="CuffClipImage" width="768" height="1024" transform="scale(0.44)" xlink:href="../../../../ClickModel/Images/fab.jpg"/></g><path id="fb829310-9177-4db5-8962-d07a4600638a" data-name="CuffMainAreaStroke" class="feb505a5-375f-4606-8953-973e2071323a" d="M296.11,110.45s-109.42-78.16-281.37,0V266.76s140.68-78.16,281.37,0c0,0,31.26,15.63,46.89,0V110.45S327.37,126.08,296.11,110.45Zm-15.64,101.6a23.45,23.45,0,1,1,23.45-23.45A23.41,23.41,0,0,1,280.47,212.05Z" transform="translate(-7 22)"/></g><path id="b94f260f-0b71-4acb-9fa4-2bdf7bf710ee" data-name="CuffInner" class="feb505a5-375f-4606-8953-973e2071323a" d="M343,266.76c0,15.63-46.89,15.63-46.89,15.63C92.9,360.55,14.74,266.76,14.74,266.76s140.68-78.16,281.37,0C296.11,266.76,327.37,282.39,343,266.76Z" transform="translate(-7 22)"/><circle id="bc8857d4-5679-470f-a65c-1a094f196e9c" data-name="CuffBtn" class="a7fddaa6-74f3-4d26-af5e-52980c988773" cx="273.47" cy="210.6" r="23.45"/></svg>