<svg id="f851cf7d-161a-476f-9701-de619f8aad6a" data-name="Layer 1" xmlns="http://www.w3.org/2000/svg" xmlns:xlink="http://www.w3.org/1999/xlink" viewBox="0 0 768 1024"><defs><style>.a187be53-21d1-4927-a04e-864cb9acabd0{fill:none;}.a0019d9f-3595-435c-9e51-664c1f6d56a7,.a187be53-21d1-4927-a04e-864cb9acabd0{stroke:#000;stroke-miterlimit:10;}.a0019d9f-3595-435c-9e51-664c1f6d56a7{fill:#fff;}.f1aff391-7223-431c-a431-43379fe19a3b{clip-path:url(#b26fbd89-bb45-474d-8365-3997db6c811a);}</style><clipPath id="b26fbd89-bb45-474d-8365-3997db6c811a" transform="translate(218.46 397.38)"><path class="a187be53-21d1-4927-a04e-864cb9acabd0" d="M339,31V196.49C261.07,167.27,145.29,175.9,73.37,185.6L186.55,118c32.78-19.59,0-41,0-41L76.92,13.23C225.27-14.46,339,31,339,31Z"/></clipPath></defs><title>CuffDesign10</title><path class="a0019d9f-3595-435c-9e51-664c1f6d56a7" d="M186.55,118,73.37,185.6c-39.15,5.29-65.3,10.89-65.3,10.89V31a517.54,517.54,0,0,1,68.85-17.8L186.55,77.06S219.33,98.43,186.55,118Z" transform="translate(218.46 397.38)"/><g class="f1aff391-7223-431c-a431-43379fe19a3b"><image width="768" height="1024" transform="translate(0)" xlink:href="../../../../ClickModel/Images/fab.jpg"/></g><path class="a187be53-21d1-4927-a04e-864cb9acabd0" d="M339,31V196.49C261.07,167.27,145.29,175.9,73.37,185.6L186.55,118c32.78-19.59,0-41,0-41L76.92,13.23C225.27-14.46,339,31,339,31Z" transform="translate(218.46 397.38)"/><circle class="a0019d9f-3595-435c-9e51-664c1f6d56a7" cx="354.39" cy="499.43" r="22.56"/><circle class="a0019d9f-3595-435c-9e51-664c1f6d56a7" cx="484.57" cy="499.43" r="22.56"/><path class="a187be53-21d1-4927-a04e-864cb9acabd0" d="M8.5,196.5s188,62,330,0" transform="translate(218.46 397.38)"/></svg>