<svg id="b9894fd7-91dd-4d8d-bc0b-9f93f979b805" data-name="Layer 1" xmlns="http://www.w3.org/2000/svg" xmlns:xlink="http://www.w3.org/1999/xlink" viewBox="0 0 913 1217.33"><defs><style>.a62b6f07-4849-46d2-a499-db1057d9ba47,.e6c3134a-f730-4a67-be7d-c354236d3404{fill:none;}.a62b6f07-4849-46d2-a499-db1057d9ba47,.ae6ebbed-5fe5-457d-88d2-7437fae9c6c2,.e6c3134a-f730-4a67-be7d-c354236d3404{stroke:#000;stroke-miterlimit:10;}.a60b2cc0-597b-4aa6-8f48-2a273f607898{clip-path:url(#abf02f4b-f4fe-46bf-bfaf-10902c1dbcd0);}.a62b6f07-4849-46d2-a499-db1057d9ba47{stroke-width:2px;}.ae6ebbed-5fe5-457d-88d2-7437fae9c6c2{fill:#fff;}</style><clipPath id="abf02f4b-f4fe-46bf-bfaf-10902c1dbcd0" transform="translate(156.81 397.14)"><path class="e6c3134a-f730-4a67-be7d-c354236d3404" d="M332,43.47V200.9c-33.21-12.45-73.57-17.61-114.21-18.75L196.5,156.67c-22.75,13.46-39.21,22.47-47.51,26.91A907.94,907.94,0,0,0,17.11,201.87l.07-158.4A501.14,501.14,0,0,1,217.54,19.85C287.24,25.44,332,43.47,332,43.47Z"/></clipPath></defs><title>CuffDesign6</title><g class="a60b2cc0-597b-4aa6-8f48-2a273f607898"><image width="768" height="1024" transform="translate(0) scale(1.19)" xlink:href="../../fab.jpg"/></g><path class="e6c3134a-f730-4a67-be7d-c354236d3404" d="M332,43.47V200.9c-33.21-12.45-73.57-17.61-114.21-18.75L196.5,156.67c-22.75,13.46-39.21,22.47-47.51,26.91A907.94,907.94,0,0,0,17.11,201.87l.07-158.4A501.14,501.14,0,0,1,217.54,19.85C287.24,25.44,332,43.47,332,43.47Z" transform="translate(156.81 397.14)"/><path class="a62b6f07-4849-46d2-a499-db1057d9ba47" d="M217.54,18.85v124.8c-7.44,4.72-14.6,9-21,13" transform="translate(156.81 397.14)"/><path class="e6c3134a-f730-4a67-be7d-c354236d3404" d="M149,183.58" transform="translate(156.81 397.14)"/><circle class="ae6ebbed-5fe5-457d-88d2-7437fae9c6c2" cx="319.92" cy="466.07" r="21.47"/><circle class="ae6ebbed-5fe5-457d-88d2-7437fae9c6c2" cx="319.92" cy="519.07" r="21.47"/><path class="e6c3134a-f730-4a67-be7d-c354236d3404" d="M196.5,156.67" transform="translate(156.81 397.14)"/><path class="ae6ebbed-5fe5-457d-88d2-7437fae9c6c2" d="M332.05,201.69c-183,67-315,0-315,0,23-9,132-18,132-18l47-27,22,25C285.05,182.69,332.05,201.69,332.05,201.69Z" transform="translate(156.81 397.14)"/></svg>