<svg id="ee1e8c6a-1864-4159-87ed-a75404549d88" data-name="Layer 1" xmlns="http://www.w3.org/2000/svg" xmlns:xlink="http://www.w3.org/1999/xlink" viewBox="0 0 432.99 577.32"><defs><style>.e7215a54-99f1-4a7c-92c4-e4d8f55f7ac8,.e721fddb-e09c-45fa-bcff-1ea953286dab{fill:none;stroke-miterlimit:10;}.e721fddb-e09c-45fa-bcff-1ea953286dab{stroke:#000;stroke-width:2px;}.be2558ed-7027-48d0-ba1f-dea17b03c993{clip-path:url(#b6108d6b-c948-4d2c-9f1c-c0aa4f94f09c);}.e7215a54-99f1-4a7c-92c4-e4d8f55f7ac8{stroke:#fff;}</style><clipPath id="b6108d6b-c948-4d2c-9f1c-c0aa4f94f09c" transform="translate(41.23 158.52)"><polygon class="e721fddb-e09c-45fa-bcff-1ea953286dab" points="72.09 14 284.07 14 284.07 188.21 176.95 233.31 72.09 189.9 72.09 14"/></clipPath></defs><title>PocketDesign1</title><g class="be2558ed-7027-48d0-ba1f-dea17b03c993"><image width="768" height="1024" transform="scale(0.56)" xlink:href="../../fab.jpg"/></g><polygon class="e721fddb-e09c-45fa-bcff-1ea953286dab" points="113.32 172.52 325.31 172.52 325.31 346.73 218.19 391.83 113.32 348.42 113.32 172.52"/><line class="e7215a54-99f1-4a7c-92c4-e4d8f55f7ac8" x1="116.14" y1="177.03" x2="116.14" y2="182.1"/><line class="e7215a54-99f1-4a7c-92c4-e4d8f55f7ac8" x1="120.65" y1="177.03" x2="125.73" y2="177.03"/><line class="e7215a54-99f1-4a7c-92c4-e4d8f55f7ac8" x1="130.24" y1="177.03" x2="135.31" y2="177.03"/><line class="e7215a54-99f1-4a7c-92c4-e4d8f55f7ac8" x1="139.82" y1="177.03" x2="144.89" y2="177.03"/><line class="e7215a54-99f1-4a7c-92c4-e4d8f55f7ac8" x1="149.4" y1="177.03" x2="154.48" y2="177.03"/><line class="e7215a54-99f1-4a7c-92c4-e4d8f55f7ac8" x1="158.99" y1="177.03" x2="164.06" y2="177.03"/><line class="e7215a54-99f1-4a7c-92c4-e4d8f55f7ac8" x1="168.57" y1="177.03" x2="173.65" y2="177.03"/><line class="e7215a54-99f1-4a7c-92c4-e4d8f55f7ac8" x1="178.16" y1="177.03" x2="183.23" y2="177.03"/><line class="e7215a54-99f1-4a7c-92c4-e4d8f55f7ac8" x1="187.74" y1="177.03" x2="192.82" y2="177.03"/><line class="e7215a54-99f1-4a7c-92c4-e4d8f55f7ac8" x1="197.33" y1="177.03" x2="202.4" y2="177.03"/><line class="e7215a54-99f1-4a7c-92c4-e4d8f55f7ac8" x1="206.91" y1="177.03" x2="211.99" y2="177.03"/><line class="e7215a54-99f1-4a7c-92c4-e4d8f55f7ac8" x1="216.5" y1="177.03" x2="221.57" y2="177.03"/><line class="e7215a54-99f1-4a7c-92c4-e4d8f55f7ac8" x1="121.27" y1="347.33" x2="125.94" y2="349.31"/><line class="e7215a54-99f1-4a7c-92c4-e4d8f55f7ac8" x1="130.1" y1="351.07" x2="134.77" y2="353.05"/><line class="e7215a54-99f1-4a7c-92c4-e4d8f55f7ac8" x1="138.92" y1="354.81" x2="143.59" y2="356.79"/><line class="e7215a54-99f1-4a7c-92c4-e4d8f55f7ac8" x1="147.74" y1="358.56" x2="152.42" y2="360.54"/><line class="e7215a54-99f1-4a7c-92c4-e4d8f55f7ac8" x1="156.57" y1="362.3" x2="161.24" y2="364.28"/><line class="e7215a54-99f1-4a7c-92c4-e4d8f55f7ac8" x1="165.39" y1="366.04" x2="170.06" y2="368.02"/><line class="e7215a54-99f1-4a7c-92c4-e4d8f55f7ac8" x1="174.22" y1="369.78" x2="178.89" y2="371.76"/><line class="e7215a54-99f1-4a7c-92c4-e4d8f55f7ac8" x1="183.04" y1="373.52" x2="187.71" y2="375.5"/><line class="e7215a54-99f1-4a7c-92c4-e4d8f55f7ac8" x1="191.86" y1="377.26" x2="196.54" y2="379.24"/><line class="e7215a54-99f1-4a7c-92c4-e4d8f55f7ac8" x1="200.69" y1="381" x2="205.36" y2="382.99"/><line class="e7215a54-99f1-4a7c-92c4-e4d8f55f7ac8" x1="209.51" y1="384.75" x2="214.18" y2="386.73"/><line class="e7215a54-99f1-4a7c-92c4-e4d8f55f7ac8" x1="226.08" y1="177.03" x2="231.15" y2="177.03"/><line class="e7215a54-99f1-4a7c-92c4-e4d8f55f7ac8" x1="235.67" y1="177.03" x2="240.74" y2="177.03"/><line class="e7215a54-99f1-4a7c-92c4-e4d8f55f7ac8" x1="245.25" y1="177.03" x2="250.32" y2="177.03"/><line class="e7215a54-99f1-4a7c-92c4-e4d8f55f7ac8" x1="254.83" y1="177.03" x2="259.91" y2="177.03"/><line class="e7215a54-99f1-4a7c-92c4-e4d8f55f7ac8" x1="264.42" y1="177.03" x2="269.49" y2="177.03"/><line class="e7215a54-99f1-4a7c-92c4-e4d8f55f7ac8" x1="274" y1="177.03" x2="279.08" y2="177.03"/><line class="e7215a54-99f1-4a7c-92c4-e4d8f55f7ac8" x1="283.59" y1="177.03" x2="288.66" y2="177.03"/><line class="e7215a54-99f1-4a7c-92c4-e4d8f55f7ac8" x1="293.17" y1="177.03" x2="298.25" y2="177.03"/><line class="e7215a54-99f1-4a7c-92c4-e4d8f55f7ac8" x1="302.76" y1="177.03" x2="307.83" y2="177.03"/><line class="e7215a54-99f1-4a7c-92c4-e4d8f55f7ac8" x1="312.34" y1="177.03" x2="317.41" y2="177.03"/><line class="e7215a54-99f1-4a7c-92c4-e4d8f55f7ac8" x1="116.14" y1="187.18" x2="116.14" y2="192.25"/><line class="e7215a54-99f1-4a7c-92c4-e4d8f55f7ac8" x1="116.14" y1="197.33" x2="116.14" y2="202.4"/><line class="e7215a54-99f1-4a7c-92c4-e4d8f55f7ac8" x1="116.14" y1="207.48" x2="116.14" y2="212.55"/><line class="e7215a54-99f1-4a7c-92c4-e4d8f55f7ac8" x1="116.14" y1="217.62" x2="116.14" y2="222.7"/><line class="e7215a54-99f1-4a7c-92c4-e4d8f55f7ac8" x1="116.14" y1="227.77" x2="116.14" y2="232.85"/><line class="e7215a54-99f1-4a7c-92c4-e4d8f55f7ac8" x1="116.14" y1="237.92" x2="116.14" y2="242.99"/><line class="e7215a54-99f1-4a7c-92c4-e4d8f55f7ac8" x1="116.14" y1="248.07" x2="116.14" y2="253.14"/><line class="e7215a54-99f1-4a7c-92c4-e4d8f55f7ac8" x1="116.14" y1="258.22" x2="116.14" y2="263.29"/><line class="e7215a54-99f1-4a7c-92c4-e4d8f55f7ac8" x1="116.14" y1="268.37" x2="116.14" y2="273.44"/><line class="e7215a54-99f1-4a7c-92c4-e4d8f55f7ac8" x1="116.14" y1="278.51" x2="116.14" y2="283.59"/><line class="e7215a54-99f1-4a7c-92c4-e4d8f55f7ac8" x1="116.14" y1="288.66" x2="116.14" y2="293.74"/><line class="e7215a54-99f1-4a7c-92c4-e4d8f55f7ac8" x1="116.14" y1="298.81" x2="116.14" y2="303.88"/><line class="e7215a54-99f1-4a7c-92c4-e4d8f55f7ac8" x1="116.14" y1="308.96" x2="116.14" y2="314.03"/><line class="e7215a54-99f1-4a7c-92c4-e4d8f55f7ac8" x1="116.14" y1="319.11" x2="116.14" y2="324.18"/><line class="e7215a54-99f1-4a7c-92c4-e4d8f55f7ac8" x1="116.14" y1="329.25" x2="116.14" y2="334.33"/><line class="e7215a54-99f1-4a7c-92c4-e4d8f55f7ac8" x1="116.14" y1="339.4" x2="116.14" y2="344.48"/><line class="e7215a54-99f1-4a7c-92c4-e4d8f55f7ac8" x1="321.93" y1="177.03" x2="321.93" y2="182.1"/><line class="e7215a54-99f1-4a7c-92c4-e4d8f55f7ac8" x1="321.93" y1="187.18" x2="321.93" y2="192.25"/><line class="e7215a54-99f1-4a7c-92c4-e4d8f55f7ac8" x1="321.93" y1="197.33" x2="321.93" y2="202.4"/><line class="e7215a54-99f1-4a7c-92c4-e4d8f55f7ac8" x1="321.93" y1="207.48" x2="321.93" y2="212.55"/><line class="e7215a54-99f1-4a7c-92c4-e4d8f55f7ac8" x1="321.93" y1="217.62" x2="321.93" y2="222.7"/><line class="e7215a54-99f1-4a7c-92c4-e4d8f55f7ac8" x1="321.93" y1="227.77" x2="321.93" y2="232.85"/><line class="e7215a54-99f1-4a7c-92c4-e4d8f55f7ac8" x1="321.93" y1="237.92" x2="321.93" y2="242.99"/><line class="e7215a54-99f1-4a7c-92c4-e4d8f55f7ac8" x1="321.93" y1="248.07" x2="321.93" y2="253.14"/><line class="e7215a54-99f1-4a7c-92c4-e4d8f55f7ac8" x1="321.93" y1="258.22" x2="321.93" y2="263.29"/><line class="e7215a54-99f1-4a7c-92c4-e4d8f55f7ac8" x1="321.93" y1="268.37" x2="321.93" y2="273.44"/><line class="e7215a54-99f1-4a7c-92c4-e4d8f55f7ac8" x1="321.93" y1="278.51" x2="321.93" y2="283.59"/><line class="e7215a54-99f1-4a7c-92c4-e4d8f55f7ac8" x1="321.93" y1="288.66" x2="321.93" y2="293.74"/><line class="e7215a54-99f1-4a7c-92c4-e4d8f55f7ac8" x1="321.93" y1="298.81" x2="321.93" y2="303.88"/><line class="e7215a54-99f1-4a7c-92c4-e4d8f55f7ac8" x1="321.93" y1="308.96" x2="321.93" y2="314.03"/><line class="e7215a54-99f1-4a7c-92c4-e4d8f55f7ac8" x1="321.93" y1="319.11" x2="321.93" y2="324.18"/><line class="e7215a54-99f1-4a7c-92c4-e4d8f55f7ac8" x1="321.93" y1="329.25" x2="321.93" y2="334.33"/><line class="e7215a54-99f1-4a7c-92c4-e4d8f55f7ac8" x1="321.93" y1="339.4" x2="321.93" y2="344.48"/><line class="e7215a54-99f1-4a7c-92c4-e4d8f55f7ac8" x1="314.85" y1="347" x2="310.18" y2="348.98"/><line class="e7215a54-99f1-4a7c-92c4-e4d8f55f7ac8" x1="306.03" y1="350.74" x2="301.35" y2="352.72"/><line class="e7215a54-99f1-4a7c-92c4-e4d8f55f7ac8" x1="297.2" y1="354.48" x2="292.53" y2="356.46"/><line class="e7215a54-99f1-4a7c-92c4-e4d8f55f7ac8" x1="288.38" y1="358.22" x2="283.71" y2="360.2"/><line class="e7215a54-99f1-4a7c-92c4-e4d8f55f7ac8" x1="279.55" y1="361.96" x2="274.88" y2="363.94"/><line class="e7215a54-99f1-4a7c-92c4-e4d8f55f7ac8" x1="270.73" y1="365.71" x2="266.06" y2="367.69"/><line class="e7215a54-99f1-4a7c-92c4-e4d8f55f7ac8" x1="261.91" y1="369.45" x2="257.23" y2="371.43"/><line class="e7215a54-99f1-4a7c-92c4-e4d8f55f7ac8" x1="253.08" y1="373.19" x2="248.41" y2="375.17"/><line class="e7215a54-99f1-4a7c-92c4-e4d8f55f7ac8" x1="244.26" y1="376.93" x2="239.59" y2="378.91"/><line class="e7215a54-99f1-4a7c-92c4-e4d8f55f7ac8" x1="235.43" y1="380.67" x2="230.76" y2="382.65"/><line class="e7215a54-99f1-4a7c-92c4-e4d8f55f7ac8" x1="226.61" y1="384.41" x2="221.94" y2="386.39"/></svg>